<svg width="18" height="18" viewBox="0 0 18 18" fill="none" xmlns="http://www.w3.org/2000/svg">
<mask id="mask0_1875_3414" style="mask-type:alpha" maskUnits="userSpaceOnUse" x="0" y="0" width="18" height="18">
<path d="M8.2367 7.63768C7.97511 7.46952 7.84431 7.25652 7.84431 6.99867C7.84431 6.71841 7.95331 6.4998 8.1713 6.34285C8.40019 6.1859 8.68903 6.10743 9.03781 6.10743C9.73301 6.10743 10.2233 6.38044 10.5087 6.92646C10.5469 6.99958 10.6358 7.03071 10.7062 6.99009L11.9461 6.27539C12.0108 6.23809 12.035 6.15438 11.9976 6.08856C11.718 5.59671 11.3309 5.21063 10.8362 4.93031C10.3131 4.61641 9.71358 4.45946 9.03781 4.45946C8.18765 4.45946 7.47373 4.69488 6.89605 5.16573C6.32927 5.63658 6.04589 6.25877 6.04589 7.03231C6.03499 7.4471 6.11128 7.81145 6.27478 8.12534C6.44917 8.43924 6.69441 8.69148 7.0105 8.88206C7.33748 9.07265 7.63177 9.21838 7.89336 9.31928C8.16585 9.42018 8.49828 9.52107 8.89067 9.62197C9.92613 9.87981 10.4439 10.2386 10.4439 10.6982C10.4439 11.326 9.98062 11.6399 9.05416 11.6399C8.18049 11.6399 7.59562 11.2893 7.29954 10.5881C7.26532 10.507 7.17026 10.4704 7.0959 10.5148L5.82412 11.2744C5.76414 11.3102 5.73951 11.3866 5.76961 11.4508C6.03337 12.0133 6.4361 12.4575 6.9778 12.7834C7.55547 13.1309 8.24759 13.3047 9.05416 13.3047C9.95883 13.3047 10.7163 13.0748 11.3267 12.6152C11.9371 12.1556 12.2423 11.5222 12.2423 10.715C12.2532 10.289 12.1714 9.91905 11.997 9.60515C11.8335 9.28004 11.5938 9.0222 11.2777 8.83162C10.9616 8.62982 10.6618 8.47848 10.3785 8.37758C10.0951 8.27669 9.76263 8.1814 9.38115 8.09171C8.87977 7.94597 8.49828 7.79463 8.2367 7.63768Z" fill="#111111"/>
<path fill-rule="evenodd" clip-rule="evenodd" d="M9 0C4.02944 0 0 4.02944 0 9C0 13.9706 4.02944 18 9 18C13.9706 18 18 13.9706 18 9C18 4.02944 13.9706 0 9 0ZM1.78378 9C1.78378 5.01459 5.01459 1.78378 9 1.78378C12.9854 1.78378 16.2162 5.01459 16.2162 9C16.2162 12.9854 12.9854 16.2162 9 16.2162C5.01459 16.2162 1.78378 12.9854 1.78378 9Z" fill="#111111"/>
</mask>
<g mask="url(#mask0_1875_3414)">
<mask id="mask1_1875_3414" style="mask-type:alpha" maskUnits="userSpaceOnUse" x="0" y="0" width="18" height="18">
<rect width="18" height="18" fill="white"/>
</mask>
<g mask="url(#mask1_1875_3414)">
<rect width="18" height="18" fill="#FAFAFA"/>
<path d="M18.2383 20.5885C15.5356 39.1597 5.75571 50.7241 -3.60575 46.4184C-12.9672 42.1126 -18.3652 23.5671 -15.6625 4.99593C-12.9599 -13.5753 -3.17997 -25.1397 6.18149 -20.8339C15.543 -16.5282 20.941 2.01728 18.2383 20.5885Z" fill="url(#paint0_radial_1875_3414)"/>
<path d="M28.1022 12.4261C26.7097 26.3031 21.5733 36.2817 16.6298 34.7139C11.6864 33.146 8.80779 20.6255 10.2004 6.74842C11.5929 -7.12864 16.7293 -17.1072 21.6728 -15.5394C26.6162 -13.9715 29.4948 -1.45098 28.1022 12.4261Z" fill="url(#paint1_radial_1875_3414)"/>
<path d="M14.0167 11.9164C15.3125 17.7591 13.1566 24.7433 9.20126 27.5159C5.2459 30.2886 0.988919 27.7997 -0.306973 21.9569C-1.60287 16.1142 0.553061 9.13001 4.50842 6.35738C8.46378 3.58476 12.7208 6.0736 14.0167 11.9164Z" fill="url(#paint2_radial_1875_3414)"/>
<path d="M8.3162 10.1571C2.61937 9.4637 -1.82824 4.47258 -1.61783 -0.990876C-1.40742 -6.45433 3.38135 -10.3212 9.07818 -9.62779C14.775 -8.93437 19.2226 -3.94325 19.0122 1.5202C18.8018 6.98366 14.013 10.8505 8.3162 10.1571Z" fill="url(#paint3_radial_1875_3414)"/>
</g>
</g>
<defs>
<radialGradient id="paint0_radial_1875_3414" cx="0" cy="0" r="1" gradientUnits="userSpaceOnUse" gradientTransform="translate(1.28788 12.7922) rotate(98.2801) scale(33.9804 17.8965)">
<stop stop-color="#F04D42"/>
<stop offset="1" stop-color="#F04D42" stop-opacity="0"/>
</radialGradient>
<radialGradient id="paint1_radial_1875_3414" cx="0" cy="0" r="1" gradientUnits="userSpaceOnUse" gradientTransform="translate(19.1513 9.58724) rotate(95.7304) scale(25.2528 9.18967)">
<stop stop-color="#5F5DF9"/>
<stop offset="1" stop-color="#5F5DF9" stop-opacity="0"/>
</radialGradient>
<radialGradient id="paint2_radial_1875_3414" cx="0" cy="0" r="1" gradientUnits="userSpaceOnUse" gradientTransform="translate(6.85484 16.9366) rotate(77.4946) scale(10.8364 8.07896)">
<stop stop-color="#F3D37E"/>
<stop offset="1" stop-color="#F3D37E" stop-opacity="0"/>
</radialGradient>
<radialGradient id="paint3_radial_1875_3414" cx="0" cy="0" r="1" gradientUnits="userSpaceOnUse" gradientTransform="translate(8.69719 0.264663) rotate(-173.06) scale(10.3912 9.86601)">
<stop stop-color="#D478D8"/>
<stop offset="1" stop-color="#D478D8" stop-opacity="0"/>
</radialGradient>
</defs>
</svg>
