<svg width="18" height="18" viewBox="0 0 18 18" fill="none" xmlns="http://www.w3.org/2000/svg">
<mask id="mask0_1909_2892" style="mask-type:alpha" maskUnits="userSpaceOnUse" x="0" y="0" width="18" height="18">
<path d="M9.1416 6.99867C9.1416 7.25652 9.27239 7.46952 9.53398 7.63768C9.79557 7.79463 10.1771 7.94597 10.6784 8.09171C11.0599 8.1814 11.3924 8.27669 11.6757 8.37758C11.9591 8.47848 12.2589 8.62982 12.575 8.83162C12.891 9.0222 13.1308 9.28004 13.2943 9.60515C13.4687 9.91905 13.5505 10.289 13.5396 10.715C13.5396 11.5222 13.2344 12.1556 12.624 12.6152C12.0136 13.0748 11.2561 13.3047 10.3514 13.3047C9.54488 13.3047 8.85276 13.1309 8.27508 12.7834C7.73338 12.4575 7.33066 12.0133 7.0669 11.4508C7.03679 11.3866 7.06142 11.3102 7.1214 11.2744L8.39319 10.5148C8.46754 10.4704 8.5626 10.507 8.59682 10.5881C8.89291 11.2893 9.47778 11.6399 10.3514 11.6399C11.2779 11.6399 11.7411 11.326 11.7411 10.6982C11.7411 10.2386 11.2234 9.87981 10.188 9.62197C9.79557 9.52107 9.46313 9.42018 9.19065 9.31928C8.92906 9.21838 8.63477 9.07265 8.30778 8.88206C7.9917 8.69148 7.74646 8.43924 7.57206 8.12534C7.40857 7.81145 7.33227 7.4471 7.34317 7.03231C7.34317 6.25877 7.62656 5.63658 8.19334 5.16573C8.77101 4.69488 9.48493 4.45946 10.3351 4.45946C11.0109 4.45946 11.6103 4.61641 12.1335 4.93031C12.6281 5.21063 13.0152 5.59671 13.2948 6.08856C13.3323 6.15438 13.3081 6.23809 13.2434 6.27539L12.0035 6.99009C11.933 7.03071 11.8442 6.99958 11.806 6.92646C11.5206 6.38044 11.0303 6.10743 10.3351 6.10743C9.98631 6.10743 9.69748 6.1859 9.46859 6.34285C9.25059 6.4998 9.1416 6.71841 9.1416 6.99867Z" fill="#111111"/>
<path d="M6.68398 9.90416C6.72198 9.94216 6.72198 10.0038 6.68398 10.0418L6.16832 10.5574C6.13033 10.5954 6.06872 10.5954 6.03072 10.5574L5.12885 9.65555L4.20855 10.5759C4.17055 10.6139 4.10894 10.6139 4.07095 10.5759L3.55529 10.0602C3.51729 10.0222 3.51729 9.9606 3.55529 9.9226L4.4756 9.00229L3.55529 8.08199C3.51729 8.04399 3.51729 7.98239 3.55529 7.94439L4.07095 7.42873C4.10895 7.39073 4.17055 7.39073 4.20855 7.42873L5.12885 8.34904L6.03072 7.44717C6.06872 7.40917 6.13032 7.40917 6.16832 7.44717L6.68398 7.96283C6.72198 8.00082 6.72198 8.06243 6.68398 8.10043L5.78211 9.00229L6.68398 9.90416Z" fill="#111111"/>
<path fill-rule="evenodd" clip-rule="evenodd" d="M0 9C0 4.02944 4.02944 0 9 0C13.9706 0 18 4.02944 18 9C18 13.9706 13.9706 18 9 18C4.02944 18 0 13.9706 0 9ZM9 1.78378C5.01459 1.78378 1.78378 5.01459 1.78378 9C1.78378 12.9854 5.01459 16.2162 9 16.2162C12.9854 16.2162 16.2162 12.9854 16.2162 9C16.2162 5.01459 12.9854 1.78378 9 1.78378Z" fill="#111111"/>
</mask>
<g mask="url(#mask0_1909_2892)">
<mask id="mask1_1909_2892" style="mask-type:alpha" maskUnits="userSpaceOnUse" x="0" y="0" width="18" height="18">
<rect width="18" height="18" fill="white"/>
</mask>
<g mask="url(#mask1_1909_2892)">
<rect width="18" height="18" fill="#FAFAFA"/>
<path d="M18.2383 20.5885C15.5356 39.1597 5.75571 50.7241 -3.60575 46.4184C-12.9672 42.1126 -18.3652 23.5671 -15.6625 4.99593C-12.9599 -13.5753 -3.17997 -25.1397 6.18149 -20.8339C15.543 -16.5282 20.941 2.01728 18.2383 20.5885Z" fill="url(#paint0_radial_1909_2892)"/>
<path d="M28.1003 12.4261C26.7077 26.3031 21.5714 36.2817 16.6279 34.7139C11.6844 33.146 8.80584 20.6255 10.1984 6.74842C11.591 -7.12864 16.7273 -17.1072 21.6708 -15.5394C26.6143 -13.9715 29.4928 -1.45098 28.1003 12.4261Z" fill="url(#paint1_radial_1909_2892)"/>
<path d="M14.0167 11.9164C15.3125 17.7591 13.1566 24.7433 9.20126 27.5159C5.2459 30.2886 0.988919 27.7997 -0.306973 21.9569C-1.60287 16.1142 0.553061 9.13001 4.50842 6.35738C8.46378 3.58476 12.7208 6.0736 14.0167 11.9164Z" fill="url(#paint2_radial_1909_2892)"/>
<path d="M8.3162 10.1571C2.61937 9.4637 -1.82824 4.47258 -1.61783 -0.990876C-1.40742 -6.45433 3.38135 -10.3212 9.07818 -9.62779C14.775 -8.93437 19.2226 -3.94325 19.0122 1.5202C18.8018 6.98366 14.013 10.8505 8.3162 10.1571Z" fill="url(#paint3_radial_1909_2892)"/>
</g>
</g>
<defs>
<radialGradient id="paint0_radial_1909_2892" cx="0" cy="0" r="1" gradientUnits="userSpaceOnUse" gradientTransform="translate(1.28788 12.7922) rotate(98.2801) scale(33.9804 17.8965)">
<stop stop-color="#F04D42"/>
<stop offset="1" stop-color="#F04D42" stop-opacity="0"/>
</radialGradient>
<radialGradient id="paint1_radial_1909_2892" cx="0" cy="0" r="1" gradientUnits="userSpaceOnUse" gradientTransform="translate(19.1493 9.58724) rotate(95.7304) scale(25.2528 9.18967)">
<stop stop-color="#5F5DF9"/>
<stop offset="1" stop-color="#5F5DF9" stop-opacity="0"/>
</radialGradient>
<radialGradient id="paint2_radial_1909_2892" cx="0" cy="0" r="1" gradientUnits="userSpaceOnUse" gradientTransform="translate(6.85484 16.9366) rotate(77.4946) scale(10.8364 8.07896)">
<stop stop-color="#F3D37E"/>
<stop offset="1" stop-color="#F3D37E" stop-opacity="0"/>
</radialGradient>
<radialGradient id="paint3_radial_1909_2892" cx="0" cy="0" r="1" gradientUnits="userSpaceOnUse" gradientTransform="translate(8.69719 0.264663) rotate(-173.06) scale(10.3912 9.86601)">
<stop stop-color="#D478D8"/>
<stop offset="1" stop-color="#D478D8" stop-opacity="0"/>
</radialGradient>
</defs>
</svg>
