<svg width="36" height="49" viewBox="0 0 36 49" fill="none" xmlns="http://www.w3.org/2000/svg">
<path d="M0.00620566 4.27356H35.6643C35.999 4.27356 36 4.27356 36 4.60539C36 16.2411 36 27.8764 36 39.5115C36 39.8683 36 39.8683 35.6504 39.8683C23.8759 39.8683 12.1015 39.8701 0.327 39.8739C0.0695406 39.8739 -0.000488281 39.8096 -0.000488281 39.5482C0.00706385 27.8873 0.00929517 16.2265 0.00620566 4.56563V4.27356ZM0.35532 4.61406V39.541H35.673V4.61406H0.35532Z" fill="#115696"/>
<path d="M32.6057 44.1617V40.5529C33.3023 40.5839 33.9959 40.5452 34.6597 40.6609C35.6267 40.8286 35.9603 41.6523 35.9073 42.5194C35.8677 43.1713 35.6277 43.731 34.9691 44.0032C34.7568 44.0926 34.5302 44.1443 34.2997 44.1561C33.7441 44.176 33.1885 44.1617 32.6057 44.1617ZM33.5124 43.3778C34.014 43.3564 34.5556 43.5139 34.8574 42.9904C35.0906 42.5867 35.0958 42.1315 34.8306 41.7329C34.5103 41.2522 33.9975 41.3761 33.5124 41.3725V43.3778Z" fill="#115696"/>
<path d="M12.2679 42.4821C12.9657 42.8634 12.685 43.5775 12.8997 44.1668C12.6207 44.1668 12.3673 44.1805 12.1181 44.1561C12.0579 44.1505 11.9806 44.023 11.9636 43.941C11.9245 43.7508 11.9235 43.5536 11.8962 43.3609C11.8447 42.9898 11.6732 42.8456 11.2983 42.844H10.6485V44.152H9.75256V40.5569C10.5085 40.5834 11.2618 40.5768 12.0074 40.6486C12.2039 40.6628 12.3894 40.7436 12.5326 40.8776C12.6758 41.0115 12.7678 41.1903 12.7932 41.3837C12.8622 41.8042 12.7612 42.1783 12.3555 42.4138C12.3249 42.4348 12.2957 42.4576 12.2679 42.4821ZM10.6372 41.3199C10.6372 41.5682 10.629 41.7787 10.6429 41.9887C10.6465 42.0432 10.716 42.1381 10.7572 42.1386C11.0381 42.1515 11.3197 42.144 11.5996 42.1161C11.8333 42.0871 11.9085 41.9005 11.8987 41.6829C11.889 41.4652 11.7443 41.3378 11.5383 41.3261C11.2505 41.3062 10.9606 41.3199 10.6372 41.3199Z" fill="#115696"/>
<path d="M30.9667 40.5957V41.3093H29.0414V41.9506H30.8045V42.6494H29.0414V43.3737H31.012V44.1551H28.1341V40.5972L30.9667 40.5957Z" fill="#115696"/>
<path d="M6.10537 41.3088C6.10537 41.4581 6.10537 41.5667 6.10537 41.6748C6.10537 41.7583 6.11206 41.8409 6.1167 41.9469H7.8875V42.6463H6.12751V43.3701H8.09604V44.1525H5.22125V40.5967H8.043V41.3103L6.10537 41.3088Z" fill="#115696"/>
<path d="M3.62657 41.8486C3.35263 41.8486 3.09723 41.8563 2.84286 41.843C2.80795 41.836 2.77504 41.8214 2.74646 41.8004C2.71789 41.7793 2.69437 41.7523 2.67757 41.7212C2.53288 41.421 2.28572 41.319 1.96801 41.3134C1.63538 41.3088 1.3774 41.4393 1.22756 41.7278C1.12136 41.9228 1.06491 42.1406 1.06312 42.3622C1.06132 42.5837 1.11424 42.8024 1.21726 42.9991C1.37843 43.3227 1.66112 43.4507 2.02208 43.4323C2.36296 43.4155 2.57871 43.2529 2.68633 42.9318C2.70013 42.8999 2.7213 42.8716 2.74812 42.8492C2.77494 42.8268 2.80668 42.8109 2.8408 42.8028C3.09466 42.7891 3.35006 42.7967 3.60648 42.7967C3.55293 43.6546 2.92267 44.1984 2.00818 44.2188C1.59724 44.2305 1.19486 44.1012 0.869226 43.8528C0.543589 43.6044 0.314724 43.2522 0.221411 42.8558C0.00823519 41.9317 0.4212 41.0208 1.22756 40.6864C1.86503 40.4234 2.48602 40.4922 3.06222 40.871C3.39846 41.0937 3.54727 41.3577 3.62657 41.8486Z" fill="#115696"/>
<path d="M11.2201 1.45016C11.5064 1.13769 11.8169 0.963367 12.2205 1.03269C12.7226 1.11781 12.9517 1.30998 12.9842 1.80747C13.0243 2.41915 12.994 3.03999 12.994 3.67052H12.3091C12.3091 3.44319 12.3091 3.21789 12.3091 2.99259C12.3091 2.67911 12.3163 2.3646 12.3055 2.05112C12.2947 1.73764 12.1562 1.57759 11.9008 1.55159C11.6026 1.52203 11.4018 1.66832 11.3344 1.98078C11.3148 2.09765 11.3069 2.21613 11.3107 2.33453C11.3107 2.77392 11.3107 3.2133 11.3107 3.66848H10.6135V2.8203C10.6135 2.5741 10.6135 2.32841 10.6135 2.08222C10.6099 1.71572 10.4714 1.54853 10.1768 1.55108C9.8823 1.55363 9.66604 1.76924 9.66192 2.09955C9.65471 2.54913 9.66192 2.9987 9.66192 3.44828V3.66645H8.97656V1.08264H9.59446C9.60528 1.18459 9.61506 1.28347 9.62021 1.32884C9.89878 1.22333 10.1686 1.07041 10.4528 1.02861C10.7618 0.984775 11.0378 1.13362 11.2201 1.45016Z" fill="#115696"/>
<path d="M0.0705566 2.54404H0.77239C0.978358 3.1236 1.48916 3.36419 2.05454 3.12615C2.18739 3.07059 2.312 2.90849 2.36349 2.76934C2.4294 2.57717 2.29397 2.42272 2.11015 2.35493C1.85269 2.26114 1.58854 2.19538 1.32902 2.1123C1.12614 2.04756 0.913993 1.99659 0.727077 1.90025C0.0947578 1.57454 0.024214 0.753369 0.578781 0.312966C1.0937 -0.0948155 2.06278 -0.107559 2.58181 0.289518C2.84648 0.493409 3.0025 0.750821 2.97212 1.11782H2.28059C2.19254 0.687105 1.8738 0.550498 1.45157 0.587198C1.35219 0.595354 1.22758 0.613704 1.16527 0.6764C1.07207 0.77019 0.973208 0.906287 0.971664 1.02556C0.971664 1.12751 1.08083 1.28043 1.18072 1.32375C1.4284 1.43181 1.69873 1.48992 1.95979 1.56944C2.13177 1.62041 2.30736 1.66374 2.47471 1.73051C2.8506 1.88139 3.09982 2.14084 3.12042 2.56392C3.14204 3.00024 2.97006 3.3545 2.57718 3.55483C1.94331 3.87901 1.28988 3.87086 0.654989 3.54922C0.273949 3.35603 0.11381 3.05376 0.0705566 2.54404Z" fill="#115696"/>
<path d="M5.48028 0.131474C6.1265 0.131474 6.76036 0.0952829 7.38548 0.140649C8.08937 0.191621 8.38648 0.737538 8.36382 1.29314C8.33653 1.92469 7.90039 2.33094 7.24696 2.36C6.92359 2.37427 6.59971 2.36255 6.23463 2.36255C6.23463 2.73057 6.2233 3.0675 6.23824 3.40392C6.24802 3.62157 6.18675 3.71689 5.95143 3.68834C5.79424 3.67791 5.63657 3.67672 5.47925 3.68478L5.48028 0.131474ZM6.24184 1.7677C6.56933 1.7677 6.8685 1.78757 7.16355 1.76158C7.45859 1.73558 7.60895 1.54545 7.62234 1.27122C7.63676 0.973542 7.50751 0.77118 7.20731 0.724285C6.93132 0.680959 6.64605 0.691663 6.36491 0.693192C6.32371 0.693192 6.24854 0.772709 6.24699 0.817056C6.23669 1.12799 6.24184 1.43943 6.24184 1.7677Z" fill="#115696"/>
<path d="M22.2224 44.1562H21.3326V40.6013H23.9551V41.3058H22.2409V42.0433H23.7033V42.7519C23.2965 42.7519 22.8959 42.7615 22.4968 42.7478C22.2908 42.7406 22.2074 42.7987 22.2177 43.0154C22.2347 43.3865 22.2224 43.7586 22.2224 44.1562Z" fill="#115696"/>
<path d="M35.7802 1.89825C35.7482 2.49362 35.6818 2.67814 35.5521 3.03902C35.3801 3.51715 34.9759 3.72359 34.4841 3.73072C33.9924 3.73786 33.5887 3.53193 33.3951 3.06808C33.2411 2.70815 33.1606 2.32166 33.158 1.93082C33.1555 1.53998 33.2309 1.15249 33.3801 0.790619C33.566 0.3232 33.962 0.107586 34.4563 0.104527C34.9506 0.101469 35.361 0.298223 35.5438 0.767172C35.6839 1.12143 35.7482 1.43185 35.7802 1.89825ZM35.1654 1.90845C35.1211 1.50424 35.033 1.31258 34.9532 1.02305C34.8899 0.794187 34.7066 0.662168 34.4517 0.666246C34.1968 0.670324 34.048 0.815596 33.981 1.03019C33.8024 1.6072 33.8024 2.22397 33.981 2.80098C34.0475 3.02526 34.2133 3.17563 34.4733 3.17308C34.7333 3.17053 34.9445 3.0273 35.0042 2.79945C35.0783 2.514 35.1865 2.33458 35.1654 1.90845Z" fill="#115696"/>
<path d="M16.1169 44.1566H15.2055V41.3771H14.1278V40.6007C14.1925 40.5911 14.2576 40.5848 14.323 40.5819C15.1983 40.5819 16.0737 40.588 16.949 40.5758C17.1617 40.5727 17.2065 40.6482 17.2065 40.8383C17.2065 41.3674 17.2137 41.3674 16.6818 41.3674H16.1169V44.1566Z" fill="#115696"/>
<path d="M20.5478 3.67007C20.5478 3.221 20.5478 2.78213 20.5478 2.34478C20.5528 2.22567 20.5482 2.10635 20.5339 1.98798C20.4876 1.70661 20.3362 1.56796 20.0813 1.55369C19.7724 1.53636 19.5721 1.66277 19.4984 1.93853C19.4651 2.06972 19.4478 2.20441 19.4469 2.33969C19.4408 2.77856 19.4469 3.21795 19.4469 3.67211H18.7688V0.112183H19.4356V1.3865C19.6854 1.26213 19.9026 1.09697 20.1447 1.04651C20.6652 0.93743 21.1781 1.17955 21.1997 1.74891C21.2244 2.38148 21.2054 3.01558 21.2054 3.66752L20.5478 3.67007Z" fill="#115696"/>
<path d="M28.5981 2.48138C28.7109 2.48138 28.8041 2.48903 28.8967 2.48138C29.1145 2.46048 29.2525 2.49617 29.3087 2.75765C29.3813 3.08184 29.6943 3.22405 30.0383 3.15422C30.3473 3.09153 30.5151 2.84839 30.4858 2.51299C30.4631 2.2515 30.2983 2.12203 30.0584 2.07513C29.9329 2.05784 29.8066 2.04779 29.6799 2.04506V1.649C29.9075 1.55929 30.1238 1.49608 30.3164 1.387C30.3823 1.34979 30.4157 1.2086 30.4193 1.1143C30.4235 0.883391 30.2283 0.702438 29.9714 0.669306C29.6202 0.62343 29.4307 0.782465 29.2912 1.2509H28.6908C28.6908 0.851278 28.8452 0.54901 29.1516 0.326769C29.6047 -0.00353336 30.3586 0.0454004 30.7767 0.41954C31.2226 0.818655 31.1686 1.37528 30.6402 1.754C30.6505 1.77337 30.6562 1.80498 30.6732 1.81211C31.2242 2.10266 31.374 2.68833 31.0264 3.19857C30.7175 3.64917 30.0445 3.84592 29.4302 3.66395C28.9045 3.50746 28.6166 3.10937 28.5981 2.48138Z" fill="#115696"/>
<path d="M16.0948 3.67002C15.5109 3.73068 15.498 3.7266 15.4223 3.47939C15.1649 3.56145 14.9172 3.6685 14.6566 3.71998C14.1675 3.81683 13.7463 3.57471 13.6376 3.16845C13.5269 2.75252 13.6968 2.40692 14.1088 2.28867C14.394 2.20711 14.6958 2.18366 14.9898 2.13167C15.187 2.09701 15.3966 2.06795 15.393 1.79882C15.3899 1.59493 15.2333 1.47769 14.9589 1.45628C14.6608 1.43284 14.4955 1.53937 14.3631 1.85591H13.6968C13.7318 1.50624 13.8982 1.28603 14.1865 1.16523C14.6649 0.964907 15.1556 0.968984 15.6412 1.13159C15.9532 1.23659 16.0927 1.47769 16.0922 1.79984C16.0922 2.17364 16.0922 2.54744 16.0922 2.92124L16.0948 3.67002ZM15.3683 2.42221C15.0933 2.47625 14.8322 2.51549 14.5784 2.58125C14.3981 2.62814 14.2869 2.75761 14.2993 2.9559C14.3111 3.14552 14.4357 3.23115 14.6082 3.27346C15.1448 3.40242 15.4707 3.04918 15.3683 2.42221Z" fill="#115696"/>
<path d="M13.823 46.5492C14.0856 46.2643 14.3935 46.146 14.7375 46.2943C14.8852 46.3586 15.0814 46.5201 15.0917 46.6511C15.1324 47.1695 15.1082 47.693 15.1082 48.2277H14.6298C14.6298 47.8276 14.6335 47.4244 14.6298 47.0212C14.6262 46.7439 14.4852 46.6048 14.2452 46.6231C14.0315 46.6399 13.8925 46.7923 13.8848 47.0426C13.876 47.3393 13.8817 47.6365 13.8817 47.9336C13.8817 48.0254 13.8817 48.1171 13.8817 48.2247H13.3668C13.3668 47.9418 13.3668 47.664 13.3668 47.3892C13.3668 47.2618 13.3668 47.1344 13.3611 47.0075C13.3498 46.8036 13.2869 46.6353 13.0418 46.6241C12.824 46.615 12.6541 46.7872 12.6474 47.0391C12.6387 47.3607 12.6448 47.6833 12.6448 48.0075V48.2252H12.1552V46.2969H12.5712C12.5861 46.3606 12.6031 46.4304 12.6258 46.5247C13.0238 46.1766 13.4213 46.0905 13.823 46.5492Z" fill="#115696"/>
<path d="M7.31701 46.3107C7.20682 46.3107 7.09251 46.3285 6.98798 46.3051C6.90508 46.2862 6.78664 46.2327 6.7645 46.168C6.66564 45.8779 6.12292 45.8285 5.93446 45.987C5.86185 46.0482 5.79749 46.1771 5.81087 46.2628C5.82426 46.3484 5.92725 46.4509 6.01684 46.4825C6.33764 46.5972 6.67903 46.6588 6.9921 46.7883C7.52504 47.0106 7.61515 47.6875 7.14657 48.0259C6.93591 48.1691 6.6919 48.2568 6.43753 48.2808C5.89275 48.3353 5.16877 48.0983 5.17701 47.3674H5.65897C5.91952 47.8215 6.16565 47.9479 6.56678 47.8332C6.73309 47.7858 6.91126 47.6992 6.87573 47.5208C6.85152 47.3939 6.70838 47.2562 6.58222 47.1884C6.42157 47.1013 6.22178 47.0814 6.04413 47.0284C5.91137 46.9962 5.78152 46.9532 5.65588 46.8999C5.15178 46.6588 5.09565 46.0263 5.54363 45.6899C5.92622 45.4029 6.6816 45.3932 7.0369 45.7072C7.19137 45.8428 7.2753 46.0528 7.39116 46.2286L7.31701 46.3107Z" fill="#115696"/>
<path d="M24.4427 0.764602V2.14392H24.0143V0.09839C24.1971 0.09839 24.3747 0.0825885 24.5498 0.106546C24.6173 0.115721 24.6996 0.203394 24.729 0.274246C24.8876 0.65654 25.0312 1.04495 25.2104 1.51084C25.3443 1.16933 25.4504 0.89917 25.5565 0.626467C25.5626 0.610665 25.5714 0.595883 25.5776 0.579572C25.7774 0.0560827 25.7774 0.0560827 26.3814 0.11674V2.14596H25.9658V0.764602L25.9004 0.748801C25.8124 0.979197 25.7223 1.20755 25.6358 1.43999C25.5729 1.60667 25.5137 1.77437 25.454 1.94207C25.4113 2.06288 25.3824 2.17298 25.2007 2.16788C25.0328 2.16329 25.0106 2.06288 24.9705 1.95074C24.8524 1.62451 24.7323 1.29863 24.61 0.97308C24.5822 0.897131 24.5477 0.823731 24.5163 0.748801L24.4427 0.764602Z" fill="#115696"/>
<path d="M19.5798 44.1567H18.707V40.6013H19.5798V44.1567Z" fill="#115696"/>
<path d="M26.3757 44.1561H25.5049V40.6023H26.3757V44.1561Z" fill="#115696"/>
<path d="M29.1243 46.5177C29.1434 46.4285 29.1567 46.3648 29.1717 46.2939H29.6413V47.2843C29.6413 47.5392 29.63 47.794 29.6413 48.0489C29.6825 48.8257 29.0852 49.0684 28.4719 48.9868C28.06 48.9323 27.8767 48.764 27.8149 48.4378C28.028 48.4205 28.2222 48.3496 28.4101 48.5663C28.4884 48.6565 28.7227 48.682 28.8545 48.6402C28.9729 48.6025 29.0769 48.4444 29.1325 48.3165C29.1773 48.2115 29.1413 48.0723 29.1413 48.0107C28.8941 48.0683 28.6511 48.1886 28.4204 48.1672C27.8406 48.1162 27.6779 47.6116 27.7248 47.1334C27.7587 46.8763 27.8691 46.635 28.0419 46.4402C28.3205 46.1262 28.7469 46.1726 29.1243 46.5177ZM29.1758 47.2446C29.1418 47.1069 29.1315 46.9581 29.0697 46.8368C29.0362 46.7729 28.9869 46.7184 28.9262 46.6787C28.8656 46.6389 28.7957 46.6151 28.7232 46.6095C28.6507 46.6039 28.5779 46.6166 28.5118 46.6466C28.4457 46.6766 28.3883 46.7227 28.3452 46.7807C28.1908 46.9912 28.1805 47.4433 28.3499 47.6426C28.4274 47.7286 28.5318 47.7863 28.6465 47.8063C28.9451 47.846 29.1444 47.6151 29.1742 47.2446H29.1758Z" fill="#115696"/>
<path d="M9.96731 47.2995V48.1992C9.93127 48.2191 9.91582 48.2339 9.90295 48.2339C9.29586 48.2502 9.41017 48.2889 9.40399 47.771C9.39627 47.1018 9.40708 46.4325 9.39936 45.7637C9.39936 45.5812 9.44673 45.5043 9.646 45.5165C10.0636 45.5425 10.4858 45.5165 10.8993 45.5675C11.3128 45.6185 11.5687 45.9753 11.5625 46.405C11.5563 46.8347 11.3107 47.1563 10.9024 47.2205C10.6074 47.274 10.3087 47.2746 9.96731 47.2995ZM9.98379 46.8408C10.0991 46.8408 10.1995 46.8408 10.2999 46.8408C10.411 46.8447 10.5221 46.841 10.6326 46.8296C10.8797 46.7903 11.0141 46.6308 11.0141 46.3958C11.0141 46.1608 10.8751 45.9911 10.629 45.9666C10.423 45.9457 10.2078 45.9625 9.98379 45.9625V46.8408Z" fill="#115696"/>
<path d="M16.5865 1.47819V1.08061L16.9872 1.05257V0.316528H17.6926V1.06073H18.1967V1.46851C18.1701 1.4832 18.1415 1.49386 18.1117 1.50011C17.6952 1.53528 17.6952 1.53477 17.6952 1.96294C17.6952 2.20048 17.6952 2.4375 17.6952 2.67656C17.6952 3.16539 17.6952 3.16539 18.1756 3.22044C18.1849 3.2342 18.2008 3.24695 18.2024 3.26173C18.2513 3.71335 18.2065 3.76024 17.7523 3.7373C17.172 3.70825 16.999 3.52679 16.999 2.94672C16.999 2.56493 16.9851 2.18213 17.0036 1.80238C17.0155 1.56995 16.9429 1.47055 16.7055 1.50317C16.6649 1.50033 16.6248 1.49193 16.5865 1.47819Z" fill="#115696"/>
<path d="M3.82843 3.6848V0.098877H4.44633C4.63016 0.098877 4.5869 0.239561 4.58742 0.338448C4.59102 1.20498 4.58742 2.06744 4.58742 2.93194C4.58742 3.1185 4.5833 3.30506 4.58742 3.49264C4.59051 3.62669 4.54932 3.69653 4.39587 3.68888C4.21771 3.67665 4.03749 3.6848 3.82843 3.6848Z" fill="#115696"/>
<path d="M19.743 45.5314H20.2363V46.5656C20.5318 46.3051 20.7888 46.1741 21.1261 46.2679C21.3506 46.3306 21.5225 46.4606 21.5339 46.6711C21.5617 47.1808 21.5431 47.6972 21.5431 48.2263H21.0679C21.0679 47.8486 21.0679 47.478 21.0679 47.1049C21.0679 46.7812 20.952 46.6314 20.7074 46.6212C20.4464 46.61 20.2883 46.7557 20.2636 47.0702C20.2419 47.348 20.2486 47.6309 20.2461 47.9082C20.243 48.2452 20.2461 48.2457 19.9119 48.239C19.8604 48.239 19.812 48.2324 19.7471 48.2278L19.743 45.5314Z" fill="#115696"/>
<path d="M15.7591 46.8571C15.7812 46.5732 15.9269 46.4136 16.1489 46.3366C16.3176 46.2767 16.4949 46.2434 16.6741 46.2378C17.3347 46.2235 17.5366 46.4258 17.5366 47.0717V48.2318C17.3605 48.2053 17.1391 48.3582 17.0119 48.0789C16.7261 48.2435 16.4305 48.3557 16.0912 48.2532C15.8379 48.1768 15.706 48.0157 15.6896 47.7583C15.6715 47.4784 15.7786 47.2903 16.0412 47.2078C16.2266 47.1497 16.4254 47.1333 16.618 47.0972C16.7724 47.0681 16.9743 47.089 16.999 46.878C17.0088 46.7928 16.9403 46.6517 16.8667 46.6134C16.6931 46.5237 16.4547 46.5054 16.3517 46.6807C16.1973 46.9458 15.9887 46.8525 15.7591 46.8571ZM16.9923 47.3026C16.8002 47.3372 16.6236 47.3597 16.4516 47.4045C16.2884 47.4453 16.1782 47.5427 16.2019 47.7313C16.2256 47.9199 16.3595 47.954 16.5139 47.9637C16.8919 47.982 17.0649 47.7537 16.9923 47.3026Z" fill="#115696"/>
<path d="M24.4478 48.292C23.8603 48.292 23.4406 47.8689 23.436 47.2725C23.4288 46.6665 23.8557 46.2322 24.4525 46.2322C25.0492 46.2322 25.4782 46.6756 25.4653 47.2761C25.4524 47.8766 25.0359 48.2935 24.4478 48.292ZM24.9782 47.2465C24.9267 47.0967 24.903 46.9305 24.8206 46.801C24.6461 46.5278 24.2434 46.5421 24.0632 46.8097C23.9118 47.0345 23.9046 47.5208 24.0781 47.7272C24.1605 47.8203 24.2723 47.883 24.3953 47.9051C24.7449 47.954 24.9566 47.6936 24.9782 47.2465Z" fill="#115696"/>
<path d="M18.3373 46.6344L18.0355 46.6013V46.3057L18.2878 46.27C18.4681 46.1079 18.0978 45.6792 18.6045 45.6955C18.7482 45.7001 18.862 45.7149 18.8512 45.8994C18.8445 46.0161 18.8512 46.1334 18.8512 46.2664L19.224 46.2985V46.6008L18.8635 46.6365C18.8635 46.9851 18.8403 47.3307 18.8784 47.6697C18.8893 47.765 19.0803 47.8399 19.2301 47.9562C19.2744 48.2248 19.2533 48.2513 18.9361 48.2431C18.482 48.2319 18.3398 48.0902 18.3388 47.6422C18.3367 47.3119 18.3373 46.9836 18.3373 46.6344Z" fill="#115696"/>
<path d="M22.6132 0.476673H22.0056V0.114258H23.6651V0.477693H23.1039V2.14093H22.6132V0.476673Z" fill="#115696"/>
<path d="M8.61303 48.2104C8.58986 48.2242 8.58368 48.2318 8.57595 48.2324C8.06104 48.2787 8.06104 48.2787 8.06104 47.7833V45.8754C8.06104 45.5145 8.06104 45.514 8.42148 45.5186C8.48018 45.5186 8.53836 45.5252 8.61097 45.5293L8.61303 48.2104Z" fill="#115696"/>
<path d="M27.3082 46.6803C27.2268 46.6925 27.1599 46.7048 27.0924 46.7124C26.7804 46.7491 26.6218 46.8811 26.5997 47.1926C26.576 47.528 26.5945 47.8664 26.5945 48.2222H26.0796V46.299H26.5379C26.5477 46.401 26.5564 46.4917 26.5688 46.6202C26.7804 46.3938 26.9807 46.2007 27.3082 46.2481V46.6803Z" fill="#115696"/>
<path d="M31.7833 3.6843V2.94315C31.9986 2.94315 32.2086 2.93602 32.4177 2.94876C32.4466 2.95784 32.4727 2.97394 32.4936 2.99557C32.5146 3.01721 32.5297 3.0437 32.5377 3.07262C32.5542 3.23294 32.5542 3.39451 32.5377 3.55483C32.5261 3.58549 32.507 3.61282 32.4821 3.63435C32.4572 3.65588 32.4273 3.67095 32.395 3.67818C32.1999 3.69296 32.0037 3.6843 31.7833 3.6843Z" fill="#115696"/>
<path d="M22.778 47.6711V48.2589C22.5921 48.2334 22.3959 48.2487 22.2553 48.1686C22.1935 48.134 22.1889 47.8271 22.2553 47.7807C22.3804 47.6936 22.5766 47.7063 22.778 47.6711Z" fill="#115696"/>
<path d="M31.4615 11.3857L25.2969 14.884V12.6086H3.61115V10.7735C3.61115 10.1012 3.61115 10.1012 4.29753 10.1012H24.8665C25.2882 10.1012 25.2882 10.1012 25.2882 9.68324V7.87524L31.4615 11.3857Z" fill="#115696"/>
<path d="M12.4698 37.2365H9.9436V17.9638C9.9436 17.638 9.9436 17.6375 10.2845 17.637C10.9281 17.637 11.5718 17.6442 12.2144 17.6329C12.4281 17.6294 12.4904 17.6982 12.4899 17.9092C12.4847 24.2723 12.4832 30.6354 12.4852 36.9985C12.4852 37.0729 12.4755 37.1473 12.4698 37.2365Z" fill="#115696"/>
<path d="M15.6597 37.2365H13.15V20.3253H15.6597V37.2365Z" fill="#115696"/>
<path d="M6.82471 20.3269H9.34781V20.6159C9.34781 26.0612 9.34935 31.5069 9.35244 36.9532C9.35244 37.1774 9.30507 37.2641 9.05945 37.259C8.3226 37.2437 7.58524 37.2534 6.82677 37.2534L6.82471 20.3269Z" fill="#115696"/>
<path d="M16.2936 25.1479H17.5587C17.9192 25.1479 18.2796 25.153 18.6401 25.1454C18.8038 25.1423 18.8841 25.1964 18.8666 25.3656C18.8625 25.4079 18.8666 25.4507 18.8666 25.493V36.8992C18.8666 37.2529 18.8666 37.256 18.518 37.256H16.2936V25.1479Z" fill="#115696"/>
<path d="M3.62555 25.1611H6.14041V37.2294H3.62555V25.1611Z" fill="#115696"/>
<path d="M19.483 28.7787H21.987C21.9937 28.8806 22.0056 28.9795 22.0056 29.0784C22.0056 31.6994 22.0056 34.3204 22.0112 36.9414C22.0112 37.178 21.9598 37.2666 21.7023 37.2595C21.0597 37.2417 20.415 37.2539 19.7729 37.2529C19.6807 37.2529 19.588 37.2457 19.4825 37.2412L19.483 28.7787Z" fill="#115696"/>
<path d="M22.6085 37.2167V34.8908C22.6085 33.7547 22.6126 32.619 22.6049 31.4833C22.6049 31.2983 22.6523 31.2284 22.848 31.2284C23.5421 31.2376 24.2382 31.2361 24.9308 31.2284C25.1368 31.2259 25.1991 31.3136 25.1991 31.5037C25.1953 33.3346 25.1953 35.1656 25.1991 36.9965C25.1991 37.1346 25.1872 37.2514 24.9993 37.2514C24.2367 37.2473 23.4736 37.2478 22.711 37.2453C22.6759 37.2396 22.6415 37.23 22.6085 37.2167Z" fill="#115696"/>
<path d="M28.9539 37.2264C28.9498 37.1377 28.9415 37.0551 28.9415 36.9715C28.9415 35.1574 28.9456 33.3433 28.9359 31.5297C28.9359 31.2957 29.0007 31.2239 29.2361 31.2274C29.8869 31.2407 30.5388 31.2391 31.1927 31.2274C31.4075 31.2244 31.4718 31.3003 31.4713 31.5078C31.4651 33.3387 31.4677 35.1696 31.4677 37.0006C31.4677 37.1306 31.4801 37.2554 31.2782 37.2554C30.5414 37.2483 29.804 37.2519 29.0666 37.2498C29.0284 37.2456 28.9906 37.2378 28.9539 37.2264Z" fill="#115696"/>
<path d="M25.8005 37.2172V35.5279C25.8005 34.1878 25.8046 32.8483 25.7964 31.5087C25.7964 31.3048 25.8479 31.2253 26.0662 31.2294C26.7263 31.2416 27.3865 31.2396 28.0466 31.2294C28.2551 31.2263 28.3318 31.2921 28.3308 31.5047C28.3246 33.3361 28.3272 35.1675 28.3272 36.9985C28.3272 37.1269 28.3421 37.2564 28.1398 37.2533C27.3942 37.2467 26.6465 37.2488 25.9025 37.2467C25.8675 37.2405 25.8333 37.2306 25.8005 37.2172Z" fill="#115696"/>
</svg>
