<svg width="1440" height="900" viewBox="0 0 1440 900" fill="none" xmlns="http://www.w3.org/2000/svg">
<g clip-path="url(#clip0_2688_19888)">
<rect x="-552.75" y="-451.667" width="2545.5" height="1803.33" fill="#FAFAFA"/>
<path d="M1459.07 1029.42C1242.86 1957.99 460.467 2536.21 -288.449 2320.92C-1037.36 2105.63 -1469.21 1178.36 -1252.99 249.796C-1036.78 -678.765 -254.386 -1256.99 494.53 -1041.7C1243.45 -826.409 1675.29 100.864 1459.07 1029.42Z" fill="url(#paint0_radial_2688_19888)"/>
<path d="M2248.14 621.304C2136.74 1315.16 1725.83 1814.09 1330.35 1735.69C934.872 1657.3 704.586 1031.27 815.991 337.421C927.396 -356.432 1338.3 -855.362 1733.78 -776.969C2129.26 -698.577 2359.54 -72.5489 2248.14 621.304Z" fill="url(#paint1_radial_2688_19888)"/>
<path d="M1121.35 595.818C1225.03 887.956 1052.55 1237.16 736.123 1375.8C419.694 1514.43 79.1352 1389.98 -24.5361 1097.85C-128.208 805.708 44.2666 456.5 360.696 317.868C677.124 179.237 1017.68 303.679 1121.35 595.818Z" fill="url(#paint2_radial_2688_19888)"/>
<path d="M665.247 507.856C209.501 473.185 -146.308 223.629 -129.475 -49.5438C-112.642 -322.716 270.459 -516.06 726.205 -481.39C1181.95 -446.719 1537.76 -197.162 1520.93 76.0102C1504.09 349.183 1120.99 542.527 665.247 507.856Z" fill="url(#paint3_radial_2688_19888)"/>
</g>
<defs>
<radialGradient id="paint0_radial_2688_19888" cx="0" cy="0" r="1" gradientUnits="userSpaceOnUse" gradientTransform="translate(103.041 639.61) rotate(103.108) scale(1726.29 1409.1)">
<stop stop-color="#F04D42"/>
<stop offset="1" stop-color="#F04D42" stop-opacity="0"/>
</radialGradient>
<radialGradient id="paint1_radial_2688_19888" cx="0" cy="0" r="1" gradientUnits="userSpaceOnUse" gradientTransform="translate(1532.07 479.362) rotate(99.1215) scale(1272.42 729.521)">
<stop stop-color="#5F5DF9"/>
<stop offset="1" stop-color="#5F5DF9" stop-opacity="0"/>
</radialGradient>
<radialGradient id="paint2_radial_2688_19888" cx="0" cy="0" r="1" gradientUnits="userSpaceOnUse" gradientTransform="translate(548.409 846.831) rotate(70.4617) scale(561.283 623.902)">
<stop stop-color="#F3D37E"/>
<stop offset="1" stop-color="#F3D37E" stop-opacity="0"/>
</radialGradient>
<radialGradient id="paint3_radial_2688_19888" cx="0" cy="0" r="1" gradientUnits="userSpaceOnUse" gradientTransform="translate(695.727 13.2331) rotate(-175.65) scale(827.586 495.51)">
<stop stop-color="#D478D8"/>
<stop offset="1" stop-color="#D478D8" stop-opacity="0"/>
</radialGradient>
<clipPath id="clip0_2688_19888">
<rect width="1440" height="900" fill="white"/>
</clipPath>
</defs>
</svg>
