<svg width="450" height="138" viewBox="0 0 450 138" fill="none" xmlns="http://www.w3.org/2000/svg">
<path d="M16.7807 88.8092C16.7807 90.8206 17.8321 92.4821 19.9348 93.7939C22.0376 95.0182 25.1042 96.1987 29.1345 97.3356C32.201 98.0352 34.8733 98.7785 37.1513 99.5655C39.4293 100.353 41.8387 101.533 44.3796 103.107C46.9204 104.594 48.8479 106.605 50.1622 109.141C51.564 111.59 52.2211 114.476 52.1335 117.799C52.1335 124.095 49.6803 129.036 44.7738 132.621C39.8674 136.207 33.7781 138 26.506 138C20.0225 138 14.4589 136.644 9.81526 133.933C5.46084 131.391 2.22353 127.926 0.103331 123.539C-0.138672 123.038 0.0593292 122.441 0.541465 122.162L10.7647 116.237C11.3623 115.891 12.1265 116.176 12.4016 116.809C14.7816 122.278 19.4831 125.013 26.506 125.013C33.9533 125.013 37.677 122.565 37.677 117.668C37.677 114.082 33.5152 111.284 25.1918 109.272C22.0376 108.485 19.3653 107.698 17.175 106.911C15.0722 106.124 12.7066 104.987 10.0781 103.501C7.53726 102.014 5.56591 100.046 4.16407 97.5979C2.84984 95.1493 2.23653 92.3072 2.32414 89.0716C2.32414 83.0376 4.60215 78.1841 9.15815 74.5112C13.8018 70.8384 19.5406 69.0019 26.3746 69.0019C31.8067 69.0019 36.6256 70.2262 40.8311 72.6748C44.807 74.8615 47.9188 77.8731 50.1664 81.7099C50.4671 82.2232 50.2728 82.8762 49.7526 83.1672L39.786 88.7423C39.2195 89.0592 38.5057 88.8163 38.1984 88.2459C35.9042 83.9866 31.9629 81.857 26.3746 81.857C23.5709 81.857 21.2491 82.4692 19.4092 83.6934C17.6568 84.9177 16.7807 86.623 16.7807 88.8092Z" fill="#FAFAFA"/>
<path d="M118.231 128.03C111.572 134.676 103.38 138 93.655 138C83.9297 138 75.7377 134.676 69.0789 128.03C62.3325 121.297 58.9593 113.12 58.9593 103.501C58.9593 93.8813 62.3325 85.7048 69.0789 78.9712C75.7377 72.325 83.9297 69.0019 93.655 69.0019C103.38 69.0019 111.572 72.325 118.231 78.9712C124.978 85.7048 128.351 93.8813 128.351 103.501C128.351 113.12 124.978 121.297 118.231 128.03ZM73.153 103.501C73.153 109.447 75.1244 114.388 79.0671 118.323C83.0098 122.259 87.8724 124.226 93.655 124.226C99.4376 124.226 104.3 122.259 108.243 118.323C112.186 114.388 114.157 109.447 114.157 103.501C114.157 97.5542 112.186 92.6133 108.243 88.6781C104.3 84.7428 99.4376 82.7752 93.655 82.7752C87.8724 82.7752 83.0098 84.7428 79.0671 88.6781C75.1244 92.6133 73.153 97.5542 73.153 103.501Z" fill="#FAFAFA"/>
<path d="M152.487 135.199C152.487 135.804 151.995 136.294 151.389 136.294H139.392C138.786 136.294 138.294 135.804 138.294 135.199V41.6322C138.294 41.0274 138.786 40.5371 139.392 40.5371H151.389C151.995 40.5371 152.487 41.0274 152.487 41.6322V135.199Z" fill="#FAFAFA"/>
<path d="M217.351 78.6827C217.687 79.0939 218.383 78.8634 218.383 78.3328V71.8023C218.383 71.1975 218.875 70.7072 219.482 70.7072H231.478C232.085 70.7072 232.576 71.1975 232.576 71.8023V135.199C232.576 135.804 232.085 136.294 231.478 136.294H219.482C218.875 136.294 218.383 135.804 218.383 135.199V128.554C218.383 128.022 217.684 127.792 217.348 128.206C212.066 134.735 204.745 138 195.384 138C186.359 138 178.649 134.676 172.253 128.03C165.857 121.384 162.659 113.208 162.659 103.501C162.659 93.7939 165.857 85.6173 172.253 78.9712C178.649 72.325 186.359 69.0019 195.384 69.0019C204.746 69.0019 212.068 72.2289 217.351 78.6827ZM182.767 118.586C186.71 122.521 191.66 124.489 197.618 124.489C203.576 124.489 208.526 122.521 212.469 118.586C216.411 114.563 218.383 109.535 218.383 103.501C218.383 97.4667 216.411 92.4821 212.469 88.5469C208.526 84.5242 203.576 82.5129 197.618 82.5129C191.66 82.5129 186.71 84.5242 182.767 88.5469C178.824 92.4821 176.853 97.4667 176.853 103.501C176.853 109.447 178.824 114.476 182.767 118.586Z" fill="#FAFAFA"/>
<path d="M277.508 138C267.607 138 259.328 134.676 252.669 128.03C246.098 121.297 242.812 113.12 242.812 103.501C242.812 93.7064 246.098 85.5299 252.669 78.9712C259.328 72.325 267.607 69.0019 277.508 69.0019C283.904 69.0019 289.73 70.5323 294.987 73.593C299.93 76.4707 303.71 80.2761 306.33 85.0091C306.611 85.5175 306.421 86.1516 305.918 86.4434L295.628 92.4068C295.071 92.7295 294.36 92.5057 294.046 91.945C292.567 89.3029 290.472 87.2082 287.759 85.6611C284.78 83.8246 281.319 82.9064 277.376 82.9064C271.594 82.9064 266.731 84.874 262.788 88.8092C258.933 92.8319 257.006 97.7291 257.006 103.501C257.006 109.272 258.933 114.17 262.788 118.192C266.731 122.128 271.594 124.095 277.376 124.095C281.231 124.095 284.692 123.221 287.759 121.472C290.565 119.838 292.747 117.685 294.304 115.014C294.621 114.47 295.317 114.257 295.864 114.569L306.151 120.42C306.667 120.713 306.858 121.364 306.561 121.877C303.782 126.687 299.88 130.531 294.856 133.408C289.599 136.469 283.816 138 277.508 138Z" fill="#FAFAFA"/>
<path d="M380.415 108.611C380.34 109.144 379.878 109.535 379.338 109.535H329.328C328.629 109.535 328.106 110.178 328.291 110.851C329.464 115.118 331.723 118.484 335.066 120.947C338.834 123.658 343.477 125.013 348.997 125.013C356.066 125.013 361.516 122.571 365.349 117.686C365.7 117.239 366.328 117.101 366.82 117.387L376.64 123.114C377.186 123.433 377.351 124.145 376.983 124.658C370.594 133.552 361.222 138 348.865 138C338.264 138 329.634 134.764 322.975 128.293C316.404 121.734 313.118 113.47 313.118 103.501C313.118 93.7939 316.36 85.6173 322.844 78.9712C329.24 72.325 337.563 69.0019 347.814 69.0019C357.364 69.0019 365.25 72.3687 371.47 79.1023C377.691 85.8359 380.801 94.0125 380.801 103.632C380.801 105.131 380.673 106.791 380.415 108.611ZM328.123 96.6958C327.957 97.3637 328.478 97.9914 329.168 97.9914H365.154C365.841 97.9914 366.361 97.3683 366.204 96.7015C365.131 92.1641 363.032 88.6151 359.905 86.0546C356.576 83.2562 352.502 81.857 347.683 81.857C342.426 81.857 338.045 83.2999 334.54 86.1857C331.345 88.8168 329.206 92.3202 328.123 96.6958Z" fill="#FAFAFA"/>
<path fill-rule="evenodd" clip-rule="evenodd" d="M394.615 34.5C394.615 45.9323 403.914 55.2 415.384 55.2C426.855 55.2 436.154 45.9323 436.154 34.5C436.154 23.0677 426.855 13.8 415.384 13.8C403.914 13.8 394.615 23.0677 394.615 34.5ZM415.384 0C396.267 0 380.769 15.4462 380.769 34.5C380.769 53.5539 396.267 69 415.384 69C434.502 69 450 53.5539 450 34.5C450 15.4462 434.502 0 415.384 0Z" fill="#FAFAFA"/>
</svg>
