<svg width="36" height="36" viewBox="0 0 36 36" fill="none" xmlns="http://www.w3.org/2000/svg">
<mask id="mask0_4150_28365" style="mask-type:alpha" maskUnits="userSpaceOnUse" x="0" y="0" width="36" height="36">
<path fill-rule="evenodd" clip-rule="evenodd" d="M32 18C32 25.732 25.732 32 18 32C10.268 32 4 25.732 4 18C4 10.268 10.268 4 18 4C25.732 4 32 10.268 32 18ZM36 18C36 27.9411 27.9411 36 18 36C8.05887 36 0 27.9411 0 18C0 8.05887 8.05887 0 18 0C27.9411 0 36 8.05887 36 18ZM16.0557 24.1311C14.3004 24.3881 12.1366 26.4954 11.3265 28.5056C10.7604 28.1452 10.2253 27.7403 9.72629 27.2958C10.669 25.3624 12.3805 23.4898 13.9591 22.7166C12.1687 21.4487 11 19.3608 11 17C11 13.134 14.134 10 18 10C21.866 10 25 13.134 25 17C25 19.3608 23.8313 21.4487 22.0409 22.7166C23.6195 23.4898 25.3311 25.3625 26.2738 27.2959C25.7747 27.7404 25.2397 28.1452 24.6735 28.5056C23.8634 26.4955 21.6996 24.3882 19.9443 24.1311C19.4092 24.0528 18.7821 24 18 24C17.2179 24 16.5908 24.0528 16.0557 24.1311ZM18 22C15.2386 22 13 19.7614 13 17C13 14.2386 15.2386 12 18 12C20.7614 12 23 14.2386 23 17C23 19.7614 20.7614 22 18 22Z" fill="#FAFAFA"/>
</mask>
<g mask="url(#mask0_4150_28365)">
<rect x="-15.9982" y="-20.5371" width="67.9962" height="77.074" fill="#FAFAFA"/>
<path d="M37.7424 42.7644C31.9668 82.4508 11.0673 107.164 -8.93803 97.9624C-28.9434 88.7611 -40.4788 49.1297 -34.7033 9.44332C-28.9277 -30.2431 -8.02815 -54.9561 11.9772 -45.7547C31.9825 -36.5534 43.518 3.07799 37.7424 42.7644Z" fill="url(#paint0_radial_4150_28365)"/>
<path d="M58.8203 25.3213C55.8444 54.9764 44.868 76.3005 34.3039 72.9501C23.7397 69.5996 17.5882 42.8433 20.5641 13.1882C23.54 -16.4669 34.5164 -37.7911 45.0805 -34.4406C55.6447 -31.0901 61.7961 -4.33384 58.8203 25.3213Z" fill="url(#paint1_radial_4150_28365)"/>
<path d="M28.7211 24.2324C31.4904 36.7183 26.8832 51.6434 18.4307 57.5685C9.97813 63.4936 0.881021 58.1749 -1.88828 45.689C-4.65759 33.2031 -0.0504017 18.278 8.40215 12.3529C16.8547 6.42782 25.9518 11.7464 28.7211 24.2324Z" fill="url(#paint2_radial_4150_28365)"/>
<path d="M16.5374 20.4725C4.36338 18.9906 -5.14112 8.32468 -4.69147 -3.35064C-4.24182 -15.026 5.99171 -23.2894 18.1658 -21.8076C30.3398 -20.3258 39.8443 -9.65982 39.3946 2.0155C38.945 13.6908 28.7115 21.9543 16.5374 20.4725Z" fill="url(#paint3_radial_4150_28365)"/>
</g>
<defs>
<radialGradient id="paint0_radial_4150_28365" cx="0" cy="0" r="1" gradientUnits="userSpaceOnUse" gradientTransform="translate(1.51958 26.1038) rotate(98.2801) scale(72.6155 38.2446)">
<stop stop-color="#F04D42"/>
<stop offset="1" stop-color="#F04D42" stop-opacity="0"/>
</radialGradient>
<radialGradient id="paint1_radial_4150_28365" cx="0" cy="0" r="1" gradientUnits="userSpaceOnUse" gradientTransform="translate(39.6922 19.2547) rotate(95.7304) scale(53.965 19.6382)">
<stop stop-color="#5F5DF9"/>
<stop offset="1" stop-color="#5F5DF9" stop-opacity="0"/>
</radialGradient>
<radialGradient id="paint2_radial_4150_28365" cx="0" cy="0" r="1" gradientUnits="userSpaceOnUse" gradientTransform="translate(13.4164 34.9607) rotate(77.4946) scale(23.1572 17.2646)">
<stop stop-color="#F3D37E"/>
<stop offset="1" stop-color="#F3D37E" stop-opacity="0"/>
</radialGradient>
<radialGradient id="paint3_radial_4150_28365" cx="0" cy="0" r="1" gradientUnits="userSpaceOnUse" gradientTransform="translate(17.3516 -0.667573) rotate(-173.06) scale(22.2057 21.0835)">
<stop stop-color="#D478D8"/>
<stop offset="1" stop-color="#D478D8" stop-opacity="0"/>
</radialGradient>
</defs>
</svg>
