<svg width="36" height="36" viewBox="0 0 36 36" fill="none" xmlns="http://www.w3.org/2000/svg">
<path fill-rule="evenodd" clip-rule="evenodd" d="M32 18C32 25.732 25.732 32 18 32C10.268 32 4 25.732 4 18C4 10.268 10.268 4 18 4C25.732 4 32 10.268 32 18ZM36 18C36 27.9411 27.9411 36 18 36C8.05887 36 0 27.9411 0 18C0 8.05887 8.05887 0 18 0C27.9411 0 36 8.05887 36 18ZM16.0558 24.1311C14.3004 24.3882 12.1365 26.4956 11.3265 28.5058C10.7603 28.1454 10.2252 27.7405 9.72621 27.2961C10.6689 25.3626 12.3805 23.4898 13.9591 22.7166C12.1687 21.4487 11 19.3608 11 17C11 13.134 14.1341 10 18 10C21.866 10 25 13.134 25 17C25 19.3608 23.8314 21.4487 22.0409 22.7166C23.6195 23.4898 25.331 25.3623 26.2737 27.2956C25.7747 27.7401 25.2396 28.145 24.6735 28.5054C23.8633 26.4953 21.6996 24.3881 19.9443 24.1311C19.4093 24.0528 18.7822 24 18 24C17.2179 24 16.5908 24.0528 16.0558 24.1311ZM18 22C15.2386 22 13 19.7614 13 17C13 14.2386 15.2386 12 18 12C20.7615 12 23 14.2386 23 17C23 19.7614 20.7615 22 18 22Z" fill="#FAFAFA"/>
</svg>
