<svg width="17" height="17" viewBox="0 0 17 17" fill="none" xmlns="http://www.w3.org/2000/svg">
<g clip-path="url(#clip0_2215_15133)">
<path fill-rule="evenodd" clip-rule="evenodd" d="M8.5 16.5C4.0815 16.5 0.5 12.9185 0.5 8.5C0.5 4.0815 4.0815 0.5 8.5 0.5C12.9185 0.5 16.5 4.0815 16.5 8.5C16.5 12.9185 12.9185 16.5 8.5 16.5ZM12.0945 7.51C12.2515 6.462 11.453 5.8985 10.362 5.5225L10.716 4.1025L9.852 3.8875L9.507 5.27C9.28 5.213 9.047 5.16 8.8145 5.107L9.162 3.7155L8.298 3.5L7.944 4.9195C7.756 4.8765 7.571 4.8345 7.392 4.7895L7.393 4.785L6.201 4.4875L5.971 5.4105C5.971 5.4105 6.6125 5.5575 6.599 5.5665C6.949 5.654 7.012 5.8855 7.0015 6.0695L6.5985 7.687C6.6225 7.693 6.6535 7.702 6.6885 7.7155L6.597 7.693L6.032 9.959C5.989 10.065 5.8805 10.2245 5.6355 10.164C5.6445 10.1765 5.0075 10.0075 5.0075 10.0075L4.5785 10.9965L5.7035 11.277C5.9125 11.3295 6.1175 11.3845 6.319 11.436L5.9615 12.872L6.825 13.087L7.179 11.667C7.415 11.7305 7.644 11.7895 7.868 11.8455L7.515 13.2595L8.379 13.4745L8.7365 12.0415C10.2105 12.3205 11.3185 12.208 11.785 10.875C12.161 9.802 11.7665 9.1825 10.991 8.779C11.556 8.649 11.981 8.2775 12.0945 7.51ZM10.1195 10.279C9.853 11.3525 8.0455 10.772 7.4595 10.6265L7.9345 8.724C8.5205 8.8705 10.399 9.16 10.1195 10.279ZM10.387 7.4945C10.1435 8.471 8.6395 7.9745 8.152 7.853L8.582 6.128C9.0695 6.2495 10.641 6.476 10.387 7.4945Z" fill="#5E5E5E"/>
</g>
<defs>
<clipPath id="clip0_2215_15133">
<rect width="16" height="16" fill="white" transform="translate(0.5 0.5)"/>
</clipPath>
</defs>
</svg>
