<svg width="17" height="17" viewBox="0 0 17 17" fill="none" xmlns="http://www.w3.org/2000/svg">
<g clip-path="url(#clip0_2215_15135)">
<path fill-rule="evenodd" clip-rule="evenodd" d="M8.5 0.5C12.9185 0.5 16.5 4.0815 16.5 8.5C16.5 12.9185 12.9185 16.5 8.5 16.5C4.0815 16.5 0.5 12.9185 0.5 8.5C0.5 4.0815 4.0815 0.5 8.5 0.5ZM8.4145 4.5H5.1385V7.097H4V8.0275H5.1385V9.004H4V9.934H5.1385V12.5H8.4145C10.3845 12.5 11.8835 11.4525 12.46 9.9345H13.5V9.0045H12.688C12.708 8.8395 12.718 8.6705 12.718 8.4995V8.4765C12.718 8.3245 12.71 8.1745 12.6945 8.0275H13.5V7.0975H12.4795C11.9175 5.557 10.407 4.5 8.4145 4.5ZM11.4565 9.9345C10.953 10.972 9.871 11.6655 8.4145 11.6655H6.0545V9.9345H11.4565ZM11.7385 8.0275C11.7595 8.181 11.7705 8.3385 11.7705 8.4995V8.522C11.7705 8.6865 11.759 8.847 11.737 9.004H6.054V8.0275H11.739H11.7385ZM8.415 5.333C9.878 5.333 10.9635 6.045 11.464 7.097H6.054V5.333H8.414H8.415Z" fill="#5E5E5E"/>
</g>
<defs>
<clipPath id="clip0_2215_15135">
<rect width="16" height="16" fill="white" transform="translate(0.5 0.5)"/>
</clipPath>
</defs>
</svg>
