<svg width="22" height="40" viewBox="0 0 22 40" fill="none" xmlns="http://www.w3.org/2000/svg">
<path d="M7.22843 7.75787C4.72878 7.80415 4.72746 12.0769 7.22843 12.1212C9.73072 12.0769 9.72873 7.80151 7.22843 7.75787ZM15.1366 7.75787C12.6323 7.80349 12.6309 12.0776 15.1366 12.1212C17.6408 12.0769 17.6362 7.80151 15.1372 7.75787H15.1366ZM9.96351 13.5314C9.66175 13.5314 9.53906 13.6484 9.53906 13.9366C9.53906 14.6381 10.315 15.2086 11.2687 15.2086C12.2224 15.2086 12.9931 14.6381 12.9931 13.9366C12.9931 13.649 12.871 13.532 12.5699 13.532C11.7063 13.6682 10.8265 13.668 9.96285 13.5314H9.96351ZM20.675 31.2214C20.3591 31.2203 20.0565 31.0945 19.8335 30.8714C19.6105 30.6484 19.4852 30.3463 19.4852 30.0314V26.5691C19.4733 25.0096 17.1189 25.0175 17.109 26.5691C17.0672 27.574 17.4558 29.3531 15.9185 29.3987C13.4951 29.2565 15.9696 25.5199 13.5422 25.3798C13.2267 25.3815 12.9248 25.5077 12.7024 25.7307C12.4799 25.9536 12.355 26.2553 12.3551 26.5698C12.4618 27.3631 12.0606 28.2054 11.1653 28.2041C10.2699 28.2027 9.86933 27.3704 9.97611 26.5691C9.97612 26.2547 9.85125 25.953 9.62881 25.73C9.40636 25.507 9.10442 25.3809 8.78896 25.3791C6.36095 25.5186 8.83539 29.2565 6.41135 29.398C4.87668 29.3484 5.26267 27.5833 5.22221 26.5678C5.19635 25.0023 2.87113 25.0082 2.84526 26.5678V30.03C2.849 30.1879 2.82104 30.345 2.76301 30.4919C2.70498 30.6389 2.61806 30.7728 2.50736 30.8858C2.39666 30.9988 2.26442 31.0886 2.1184 31.1499C1.97239 31.2112 1.81555 31.2427 1.65712 31.2427C1.49868 31.2427 1.34185 31.2112 1.19583 31.1499C1.04982 31.0886 0.917572 30.9988 0.806872 30.8858C0.696172 30.7728 0.609253 30.6389 0.551225 30.4919C0.493197 30.345 0.465232 30.1879 0.468974 30.03V25.3804C0.498156 25.1689 0.447752 10.7078 0.468974 10.4988C0.486513 9.06174 0.796052 7.64309 1.3789 6.32855C6.04459 -4.09849 21.7421 -0.894086 21.8622 10.4889C21.8622 13.9181 21.8622 26.8613 21.8622 30.032C21.862 30.3464 21.7371 30.6479 21.5147 30.8707C21.2922 31.0936 20.9904 31.2196 20.675 31.2214V31.2214Z" fill="white"/>
<path d="M13.6981 39.3182C13.7114 39.0855 11.2157 33.9757 11.6965 33.8713C11.8763 33.6729 12.2443 33.7675 12.3345 34.024L14.3102 38.94L16.2866 34.0227C16.4285 33.63 17.0533 33.7086 17.0268 34.1503C17.0612 34.301 14.9502 39.1747 14.923 39.3168C14.7068 39.859 13.9136 39.857 13.6981 39.3182Z" fill="white"/>
<path d="M17.9101 39.5523C17.8749 39.5169 17.8472 39.4748 17.8287 39.4284C17.8102 39.382 17.8014 39.3324 17.8027 39.2826V34.192C17.8011 34.1416 17.8097 34.0914 17.828 34.0443C17.8463 33.9973 17.8739 33.9544 17.9092 33.9183C17.9445 33.8821 17.9867 33.8534 18.0334 33.8339C18.08 33.8144 18.1301 33.8044 18.1807 33.8046C18.2961 33.8462 21.8523 33.6962 21.8105 33.9117C22.0433 34.1239 21.8689 34.5305 21.5552 34.5173H18.5694V36.3684H21.2547C21.3027 36.3682 21.3503 36.3775 21.3946 36.3957C21.439 36.4139 21.4793 36.4407 21.5133 36.4745C21.5472 36.5082 21.5742 36.5484 21.5925 36.5926C21.6108 36.6368 21.6202 36.6842 21.6202 36.732C21.6198 36.7789 21.6101 36.8253 21.5916 36.8685C21.5732 36.9117 21.5463 36.9507 21.5125 36.9835C21.4788 37.0162 21.4388 37.0419 21.395 37.0591C21.3512 37.0763 21.3044 37.0847 21.2574 37.0837H18.5694V38.9467H21.5538C21.8642 38.9322 22.0439 39.354 21.8092 39.5576C21.8702 39.7559 18.2756 39.6237 18.1794 39.6594C18.1294 39.6627 18.0792 39.6548 18.0326 39.6363C17.986 39.6177 17.9442 39.589 17.9101 39.5523V39.5523Z" fill="white"/>
<path d="M12.0898 39.1754C11.8119 38.8726 10.124 33.4978 9.49068 33.7649C9.18494 33.7404 8.93093 33.8072 8.78635 34.1516L7.88239 36.3406H7.19795C6.66009 36.3875 6.62361 37.2278 7.56604 37.0883L6.70386 39.1754C6.56193 39.5251 6.95522 39.861 7.27024 39.6336C7.40289 39.658 8.29955 37.1875 8.36786 37.0883H9.01913C9.56164 37.04 9.58419 36.1971 8.66697 36.3353L9.3965 34.5285L11.3729 39.4451C11.5599 39.9258 12.2828 39.6613 12.0898 39.1754Z" fill="white"/>
<path d="M5.88081 39.1754C5.60292 38.8739 3.91239 33.4978 3.28234 33.7649C2.9766 33.7404 2.72193 33.8072 2.57735 34.1516L1.67405 36.3406H0.989619C0.451755 36.3875 0.415278 37.2278 1.35704 37.0883L0.494863 39.1754C0.353599 39.5251 0.746221 39.861 1.06191 39.6336C1.19455 39.658 2.09121 37.1874 2.15952 37.0883H2.81809C3.36126 37.04 3.38381 36.1971 2.46593 36.3353L3.19082 34.5285L5.16586 39.4451C5.35156 39.9258 6.07446 39.6613 5.88081 39.1754Z" fill="white"/>
</svg>
