<svg width="110" height="59" viewBox="0 0 110 59" fill="none" xmlns="http://www.w3.org/2000/svg">
<path d="M21.2402 8.76367H24.6377V13.624C24.109 13.7926 23.5713 13.9202 23.0244 14.0068C22.4775 14.0934 21.8441 14.1367 21.124 14.1367C19.611 14.1367 18.4329 13.6878 17.5898 12.79C16.7467 11.8877 16.3252 10.6253 16.3252 9.00293C16.3252 7.96387 16.5326 7.05469 16.9473 6.27539C17.3665 5.49154 17.9681 4.89453 18.752 4.48438C19.5358 4.06966 20.4541 3.8623 21.5068 3.8623C22.5732 3.8623 23.5667 4.05827 24.4873 4.4502L24.0361 5.47559C23.1338 5.09277 22.2656 4.90137 21.4316 4.90137C20.2148 4.90137 19.2646 5.26367 18.5811 5.98828C17.8975 6.71289 17.5557 7.71777 17.5557 9.00293C17.5557 10.3519 17.8838 11.375 18.54 12.0723C19.2008 12.7695 20.1693 13.1182 21.4453 13.1182C22.138 13.1182 22.8148 13.0384 23.4756 12.8789V9.80273H21.2402V8.76367ZM30.291 6.37109C30.6237 6.37109 30.9222 6.39844 31.1865 6.45312L31.0293 7.50586C30.7194 7.4375 30.446 7.40332 30.209 7.40332C29.6029 7.40332 29.0833 7.64941 28.6504 8.1416C28.222 8.63379 28.0078 9.24674 28.0078 9.98047V14H26.873V6.50781H27.8096L27.9395 7.89551H27.9941C28.2721 7.40788 28.6071 7.0319 28.999 6.76758C29.391 6.50326 29.8216 6.37109 30.291 6.37109ZM37.1953 14L36.9697 12.9336H36.915C36.5413 13.403 36.1676 13.722 35.7939 13.8906C35.4248 14.0547 34.9622 14.1367 34.4062 14.1367C33.6634 14.1367 33.0801 13.9453 32.6562 13.5625C32.237 13.1797 32.0273 12.6351 32.0273 11.9287C32.0273 10.4157 33.2373 9.62272 35.6572 9.5498L36.9287 9.50879V9.04395C36.9287 8.45605 36.8011 8.02311 36.5459 7.74512C36.2952 7.46257 35.8919 7.32129 35.3359 7.32129C34.7116 7.32129 34.0052 7.5127 33.2168 7.89551L32.8682 7.02734C33.2373 6.82682 33.6406 6.6696 34.0781 6.55566C34.5202 6.44173 34.9622 6.38477 35.4043 6.38477C36.2975 6.38477 36.9583 6.58301 37.3867 6.97949C37.8197 7.37598 38.0361 8.01172 38.0361 8.88672V14H37.1953ZM34.6318 13.2002C35.3382 13.2002 35.8919 13.0065 36.293 12.6191C36.6986 12.2318 36.9014 11.6895 36.9014 10.9922V10.3154L35.7666 10.3633C34.8643 10.3952 34.2126 10.5365 33.8115 10.7871C33.415 11.0332 33.2168 11.4183 33.2168 11.9424C33.2168 12.3525 33.3398 12.6647 33.5859 12.8789C33.8366 13.0931 34.1852 13.2002 34.6318 13.2002ZM45.5078 14V9.15332C45.5078 8.54264 45.3688 8.08691 45.0908 7.78613C44.8128 7.48535 44.3776 7.33496 43.7852 7.33496C43.0013 7.33496 42.4271 7.54688 42.0625 7.9707C41.6979 8.39453 41.5156 9.09408 41.5156 10.0693V14H40.3809V6.50781H41.3037L41.4883 7.5332H41.543C41.7754 7.16406 42.1012 6.87923 42.5205 6.67871C42.9398 6.47363 43.4069 6.37109 43.9219 6.37109C44.8242 6.37109 45.5033 6.58984 45.959 7.02734C46.4147 7.46029 46.6426 8.15527 46.6426 9.1123V14H45.5078ZM51.4004 13.2002C51.6009 13.2002 51.7946 13.1865 51.9814 13.1592C52.1683 13.1273 52.3164 13.0954 52.4258 13.0635V13.9316C52.3027 13.9909 52.1204 14.0387 51.8789 14.0752C51.6419 14.1162 51.4277 14.1367 51.2363 14.1367C49.7871 14.1367 49.0625 13.3734 49.0625 11.8467V7.38965H47.9893V6.84277L49.0625 6.37109L49.541 4.77148H50.1973V6.50781H52.3711V7.38965H50.1973V11.7988C50.1973 12.25 50.3044 12.5964 50.5186 12.8379C50.7327 13.0794 51.0267 13.2002 51.4004 13.2002ZM58.7627 11.9561C58.7627 12.6533 58.5029 13.1911 57.9834 13.5693C57.4639 13.9476 56.7347 14.1367 55.7959 14.1367C54.8024 14.1367 54.0277 13.9795 53.4717 13.665V12.6123C53.8317 12.7946 54.2168 12.9382 54.627 13.043C55.0417 13.1478 55.4404 13.2002 55.8232 13.2002C56.4157 13.2002 56.8714 13.1068 57.1904 12.9199C57.5094 12.7285 57.6689 12.4391 57.6689 12.0518C57.6689 11.7601 57.5413 11.5117 57.2861 11.3066C57.0355 11.097 56.5433 10.8509 55.8096 10.5684C55.1123 10.3086 54.6156 10.083 54.3193 9.8916C54.0277 9.69564 53.8089 9.47461 53.6631 9.22852C53.5218 8.98242 53.4512 8.68848 53.4512 8.34668C53.4512 7.736 53.6995 7.25521 54.1963 6.9043C54.693 6.54883 55.3743 6.37109 56.2402 6.37109C57.0469 6.37109 57.8353 6.53516 58.6055 6.86328L58.2021 7.78613C57.4502 7.47624 56.7689 7.32129 56.1582 7.32129C55.6204 7.32129 55.2148 7.4056 54.9414 7.57422C54.668 7.74284 54.5312 7.97526 54.5312 8.27148C54.5312 8.47201 54.5814 8.6429 54.6816 8.78418C54.7865 8.92546 54.9528 9.0599 55.1807 9.1875C55.4085 9.3151 55.846 9.49967 56.4932 9.74121C57.3818 10.0648 57.9811 10.3906 58.291 10.7188C58.6055 11.0469 58.7627 11.4593 58.7627 11.9561ZM67.6289 7.38965H65.7217V14H64.5869V7.38965H63.2471V6.87695L64.5869 6.4668V6.0498C64.5869 4.20866 65.3913 3.28809 67 3.28809C67.3965 3.28809 67.8613 3.36784 68.3945 3.52734L68.1006 4.43652C67.6631 4.29525 67.2894 4.22461 66.9795 4.22461C66.5511 4.22461 66.2344 4.36816 66.0293 4.65527C65.8242 4.93783 65.7217 5.39355 65.7217 6.02246V6.50781H67.6289V7.38965ZM72.4141 6.37109C72.7467 6.37109 73.0452 6.39844 73.3096 6.45312L73.1523 7.50586C72.8424 7.4375 72.569 7.40332 72.332 7.40332C71.7259 7.40332 71.2064 7.64941 70.7734 8.1416C70.3451 8.63379 70.1309 9.24674 70.1309 9.98047V14H68.9961V6.50781H69.9326L70.0625 7.89551H70.1172C70.3952 7.40788 70.7301 7.0319 71.1221 6.76758C71.514 6.50326 71.9447 6.37109 72.4141 6.37109ZM81.1777 10.2471C81.1777 11.4684 80.8701 12.4232 80.2549 13.1113C79.6396 13.7949 78.7897 14.1367 77.7051 14.1367C77.0352 14.1367 76.4404 13.9795 75.9209 13.665C75.4014 13.3506 75.0003 12.8994 74.7178 12.3115C74.4352 11.7236 74.2939 11.0355 74.2939 10.2471C74.2939 9.02572 74.5993 8.07552 75.21 7.39648C75.8206 6.71289 76.6683 6.37109 77.7529 6.37109C78.8011 6.37109 79.6328 6.71973 80.248 7.41699C80.8678 8.11426 81.1777 9.05762 81.1777 10.2471ZM75.4697 10.2471C75.4697 11.2041 75.6611 11.9333 76.0439 12.4346C76.4268 12.9359 76.9896 13.1865 77.7324 13.1865C78.4753 13.1865 79.0381 12.9382 79.4209 12.4414C79.8083 11.9401 80.002 11.2087 80.002 10.2471C80.002 9.2946 79.8083 8.57227 79.4209 8.08008C79.0381 7.58333 78.4707 7.33496 77.7188 7.33496C76.9759 7.33496 76.4154 7.57878 76.0371 8.06641C75.6589 8.55404 75.4697 9.28092 75.4697 10.2471ZM92.7236 14V9.12598C92.7236 8.52897 92.596 8.08236 92.3408 7.78613C92.0856 7.48535 91.6891 7.33496 91.1514 7.33496C90.445 7.33496 89.9232 7.53776 89.5859 7.94336C89.2487 8.34896 89.0801 8.97331 89.0801 9.81641V14H87.9453V9.12598C87.9453 8.52897 87.8177 8.08236 87.5625 7.78613C87.3073 7.48535 86.9085 7.33496 86.3662 7.33496C85.6553 7.33496 85.1335 7.54915 84.8008 7.97754C84.4727 8.40137 84.3086 9.09863 84.3086 10.0693V14H83.1738V6.50781H84.0967L84.2812 7.5332H84.3359C84.5501 7.16862 84.8509 6.88379 85.2383 6.67871C85.6302 6.47363 86.0677 6.37109 86.5508 6.37109C87.722 6.37109 88.4876 6.79492 88.8477 7.64258H88.9023C89.1257 7.25065 89.4492 6.94076 89.873 6.71289C90.2969 6.48503 90.7799 6.37109 91.3223 6.37109C92.1699 6.37109 92.8034 6.58984 93.2227 7.02734C93.6465 7.46029 93.8584 8.15527 93.8584 9.1123V14H92.7236Z" fill="#FAFAFA"/>
<path d="M3.86052 52.9802C4.15229 53.1517 4.3992 53.3875 4.55627 53.7091C4.73583 54.0307 4.82561 54.4166 4.82561 54.8454C4.82561 55.2742 4.73583 55.6387 4.53384 55.9603C4.35428 56.2819 4.08494 56.5177 3.74831 56.6678C3.41162 56.8393 3.00759 56.9251 2.58117 56.9251C2.33427 56.9251 2.10979 56.8822 1.88537 56.7965C1.6609 56.7321 1.4589 56.6035 1.30183 56.4534V58.6832H0V52.8086H1.12227L1.23448 53.2803C1.72824 52.8944 2.26692 52.7014 2.82803 52.7014C3.20963 52.7014 3.56875 52.7872 3.86052 52.9802ZM3.14228 55.6387C3.36671 55.4458 3.47897 55.1885 3.47897 54.8669C3.47897 54.5453 3.36671 54.288 3.16472 54.0736C2.96272 53.8592 2.69339 53.7734 2.40161 53.7734C2.15471 53.7734 1.93024 53.8163 1.75068 53.9235C1.57116 54.0093 1.43647 54.1594 1.32426 54.3523V55.3171C1.39161 55.5101 1.52625 55.6602 1.68338 55.7673C1.86294 55.8746 2.06493 55.9389 2.31183 55.9389C2.64847 55.9389 2.91781 55.8317 3.14228 55.6387Z" fill="white"/>
<path d="M5.58868 53.73C5.79072 53.4299 6.06001 53.1726 6.41913 53.0011C6.77825 52.8295 7.18228 52.7223 7.63117 52.7223C8.08007 52.7223 8.48406 52.8081 8.84317 53.0011C9.17986 53.1726 9.44919 53.4299 9.65119 53.7514C9.85318 54.073 9.94296 54.4161 9.94296 54.8234C9.94296 55.2308 9.85318 55.5738 9.65119 55.8954C9.44919 56.217 9.20229 56.4743 8.84317 56.6458C8.50649 56.8173 8.08007 56.9245 7.63117 56.9245C7.18228 56.9245 6.77825 56.8388 6.41913 56.6673C6.06001 56.4957 5.79072 56.2599 5.58868 55.9383C5.40912 55.6167 5.29691 55.2523 5.29691 54.8234C5.29691 54.4161 5.40912 54.0516 5.58868 53.73ZM6.91294 55.5953C7.0925 55.8097 7.3394 55.8954 7.63117 55.8954C7.92295 55.8954 8.16985 55.7882 8.34941 55.5953C8.52897 55.4023 8.61875 55.1236 8.61875 54.8234C8.61875 54.5019 8.52897 54.2446 8.34941 54.0516C8.14737 53.8372 7.92295 53.73 7.60874 53.73C7.31692 53.73 7.0925 53.8372 6.8905 54.0302C6.71095 54.2446 6.62117 54.5019 6.62117 54.8234C6.62117 55.1236 6.71095 55.3809 6.91294 55.5953Z" fill="white"/>
<path d="M12.053 49.7639V56.8176H10.7512V49.7639H12.053Z" fill="white"/>
<path d="M17.3946 52.9154L14.7462 58.7042H13.4893L14.4768 56.6245L12.5915 52.9154H14.0729L15.1502 55.2309L16.2276 52.9154H17.3946Z" fill="white"/>
<path d="M22.3772 52.9153V56.8174C22.3772 57.1818 22.265 57.5249 22.0405 57.825C21.8161 58.1252 21.5243 58.361 21.1427 58.5325C20.7612 58.7041 20.3572 58.7898 19.9083 58.7898C19.5716 58.7898 19.2798 58.7469 19.0329 58.6826C18.7861 58.5968 18.584 58.5111 18.427 58.4253C18.2474 58.3181 18.0678 58.1895 17.8658 58.018L18.6289 57.1604C18.8085 57.3319 19.0105 57.4605 19.1901 57.5463C19.3696 57.632 19.6165 57.6964 19.8859 57.6964C20.2225 57.6964 20.4918 57.6106 20.7163 57.4605C20.9407 57.3104 21.0529 57.0746 21.0529 56.7959V56.2385C20.9183 56.4314 20.7387 56.603 20.4694 56.7316C20.2001 56.8602 19.8859 56.9245 19.5267 56.9245C19.1676 56.9245 18.8085 56.8388 18.4943 56.6458C18.18 56.4743 17.9331 56.217 17.7311 55.8954C17.5516 55.5738 17.4394 55.2308 17.4394 54.8449C17.4394 54.459 17.5292 54.0945 17.7311 53.7729C17.9331 53.4513 18.18 53.194 18.5167 53.0011C18.8309 52.8081 19.1676 52.7223 19.5267 52.7223C19.8634 52.7223 20.1552 52.7652 20.4245 52.851C20.6939 52.9367 20.8959 53.0654 21.0305 53.2155L21.1652 52.9153H22.3772ZM21.0529 55.3166V54.3518C20.9632 54.1588 20.8285 54.0087 20.6265 53.9015C20.4245 53.7943 20.2001 53.73 19.9307 53.73C19.6165 53.73 19.3472 53.8372 19.1227 54.0302C18.8983 54.2231 18.786 54.4804 18.786 54.802C18.786 55.1022 18.8983 55.3809 19.1227 55.5953C19.3472 55.8097 19.6165 55.9169 19.9307 55.9169C20.447 55.8954 20.8285 55.7025 21.0529 55.3166Z" fill="white"/>
<path d="M23.4549 53.7306C23.657 53.409 23.9263 53.1731 24.2854 52.9802C24.6445 52.8086 25.0485 52.7014 25.4974 52.7014C25.9463 52.7014 26.3503 52.7872 26.7094 52.9802C27.0461 53.1517 27.3155 53.409 27.5174 53.7306C27.697 54.0522 27.8092 54.3952 27.8092 54.8025C27.8092 55.2099 27.7194 55.5529 27.5174 55.8745C27.3379 56.1961 27.0685 56.4534 26.7094 56.6249C26.3727 56.7965 25.9463 56.9036 25.4974 56.9036C25.0485 56.9036 24.6445 56.8179 24.2854 56.6464C23.9263 56.4749 23.657 56.239 23.4549 55.9174C23.2529 55.5958 23.1632 55.2313 23.1632 54.7811C23.1632 54.4166 23.2529 54.0522 23.4549 53.7306ZM24.7568 55.5958C24.9363 55.8102 25.1832 55.896 25.475 55.896C25.7668 55.896 26.0136 55.7888 26.1932 55.5958C26.3727 55.4028 26.4625 55.1242 26.4625 54.824C26.4625 54.5024 26.3727 54.2451 26.1932 54.0522C26.0136 53.8592 25.7668 53.752 25.475 53.752C25.1832 53.752 24.9588 53.8592 24.7568 54.0522C24.5547 54.2451 24.4649 54.5238 24.4649 54.824C24.4874 55.1242 24.5772 55.3814 24.7568 55.5958Z" fill="white"/>
<path d="M32.4102 53.0439C32.6796 53.2583 32.792 53.5371 32.8143 53.8801V56.8174H31.4901V54.3518C31.4677 53.9658 31.2657 53.7729 30.8841 53.7729C30.5923 53.7729 30.3455 53.9015 30.1659 54.1802C29.9864 54.459 29.8966 54.802 29.8966 55.2093V56.8174H28.5947V52.9153H29.7843L29.8741 53.5371C30.0312 53.2798 30.2332 53.0868 30.5026 52.9367C30.7719 52.7867 31.0861 52.7223 31.4453 52.7223C31.8268 52.7223 32.1635 52.8295 32.4102 53.0439Z" fill="white"/>
<path d="M23.3977 33.9543C22.8951 33.6655 22.2419 33.6655 21.6892 33.9543L17.7697 36.1681L15.1064 37.6119L11.187 39.8258C10.6845 40.1145 10.0312 40.1145 9.47849 39.8258L6.363 38.0932C5.8605 37.8044 5.50875 37.275 5.50875 36.6975V33.2805C5.50875 32.703 5.81026 32.1736 6.363 31.8849L9.42824 30.2004C9.93074 29.9117 10.584 29.9117 11.1367 30.2004L14.202 31.8849C14.7044 32.1736 15.0562 32.703 15.0562 33.2805V35.4944L17.7195 34.0024V31.7886C17.7195 31.2111 17.418 30.6817 16.8652 30.3929L11.187 27.2166C10.6845 26.9278 10.0312 26.9278 9.47849 27.2166L3.69976 30.3929C3.14701 30.6817 2.84551 31.2111 2.84551 31.7886V38.1894C2.84551 38.767 3.14701 39.2964 3.69976 39.5851L9.47849 42.7615C9.98098 43.0503 10.6342 43.0503 11.187 42.7615L15.1064 40.5958L17.7697 39.1038L21.6892 36.9382C22.1917 36.6494 22.8449 36.6494 23.3977 36.9382L26.4629 38.6226C26.9654 38.9114 27.3172 39.4407 27.3172 40.0182V43.4353C27.3172 44.0128 27.0157 44.5422 26.4629 44.831L23.3977 46.5635C22.8951 46.8523 22.2419 46.8523 21.6892 46.5635L18.624 44.879C18.1215 44.5903 17.7697 44.0609 17.7697 43.4834V41.2695L15.1064 42.7615V44.9753C15.1064 45.5528 15.408 46.0823 15.9607 46.371L21.7395 49.5474C22.2419 49.8361 22.8951 49.8361 23.4479 49.5474L29.2267 46.371C29.7292 46.0823 30.0809 45.5528 30.0809 44.9753V38.5745C30.0809 37.997 29.7794 37.4675 29.2267 37.1788L23.3977 33.9543Z" fill="white"/>
<path d="M57.2135 33.1527C55.2311 33.1894 55.23 36.578 57.2135 36.6132C59.198 36.578 59.1965 33.1873 57.2135 33.1527ZM63.4853 33.1527C61.4992 33.1888 61.4982 36.5786 63.4853 36.6132C65.4715 36.578 65.4672 33.1873 63.4853 33.1527ZM59.3827 37.7315C59.1433 37.7315 59.046 37.8244 59.046 38.053C59.046 38.6093 59.6614 39.0617 60.4178 39.0617C61.1742 39.0617 61.7854 38.6093 61.7854 38.053C61.7854 37.8249 61.6886 37.7321 61.4498 37.7321C60.7648 37.8401 60.0676 37.8399 59.3827 37.7315ZM67.8778 51.7613C67.6273 51.7604 67.3873 51.6606 67.2104 51.4837C67.0335 51.3068 66.9342 51.0673 66.9342 50.8175V48.0716C66.9248 46.8348 65.0575 46.8411 65.0496 48.0716C65.0165 48.8686 65.3247 50.2795 64.1055 50.3157C62.1835 50.203 64.146 47.2395 62.2209 47.1284C61.9707 47.1298 61.7312 47.2298 61.5548 47.4067C61.3784 47.5835 61.2794 47.8228 61.2794 48.0722C61.364 48.7013 61.0458 49.3693 60.3357 49.3683C59.6257 49.3672 59.308 48.7071 59.3926 48.0716C59.3927 47.8222 59.2936 47.583 59.1172 47.4061C58.9408 47.2293 58.7013 47.1293 58.4511 47.1279C56.5255 47.2385 58.488 50.203 56.5655 50.3152C55.3484 50.2759 55.6545 48.8759 55.6224 48.0706C55.6019 46.829 53.7578 46.8337 53.7373 48.0706V50.8165C53.7402 50.9417 53.7181 51.0662 53.672 51.1828C53.626 51.2993 53.5571 51.4055 53.4693 51.4951C53.3815 51.5847 53.2766 51.6559 53.1608 51.7046C53.045 51.7532 52.9206 51.7782 52.795 51.7782C52.6693 51.7782 52.5449 51.7532 52.4291 51.7046C52.3133 51.6559 52.2084 51.5847 52.1206 51.4951C52.0328 51.4055 51.9639 51.2993 51.9179 51.1828C51.8719 51.0662 51.8497 50.9417 51.8527 50.8165V47.1289C51.8758 46.9611 51.8358 35.4922 51.8527 35.3265C51.8666 34.1868 52.1121 33.0616 52.5743 32.0191C56.2746 23.7495 68.7241 26.2909 68.8193 35.3186C68.8193 38.0383 68.8193 48.3034 68.8193 50.818C68.8192 51.0673 68.7201 51.3065 68.5437 51.4832C68.3673 51.6599 68.1279 51.7599 67.8778 51.7613Z" fill="white"/>
<path d="M62.3445 58.1827C62.355 57.9982 60.3757 53.9457 60.7571 53.8629C60.8996 53.7056 61.1915 53.7806 61.2631 53.984L62.83 57.8828L64.3974 53.9829C64.51 53.6715 65.0055 53.7339 64.9844 54.0841C65.0118 54.2037 63.3376 58.069 63.316 58.1817C63.1445 58.6116 62.5154 58.6101 62.3445 58.1827Z" fill="white"/>
<path d="M65.685 58.3684C65.657 58.3404 65.635 58.3069 65.6204 58.2702C65.6057 58.2334 65.5987 58.1941 65.5998 58.1545V54.1173C65.5985 54.0773 65.6053 54.0374 65.6198 54.0001C65.6343 53.9628 65.6562 53.9288 65.6842 53.9002C65.7122 53.8715 65.7457 53.8487 65.7827 53.8332C65.8197 53.8177 65.8595 53.8098 65.8996 53.81C65.9911 53.843 68.8114 53.724 68.7783 53.8949C68.9629 54.0632 68.8246 54.3857 68.5758 54.3752H66.2078V55.8433H68.3375C68.3756 55.8432 68.4133 55.8505 68.4485 55.865C68.4837 55.8794 68.5156 55.9006 68.5426 55.9274C68.5695 55.9542 68.5909 55.9861 68.6054 56.0211C68.62 56.0562 68.6274 56.0938 68.6273 56.1317C68.6271 56.1689 68.6194 56.2057 68.6047 56.2399C68.5901 56.2742 68.5688 56.3052 68.542 56.3311C68.5152 56.3571 68.4835 56.3775 68.4488 56.3911C68.4141 56.4048 68.377 56.4114 68.3396 56.4106H66.2078V57.8882H68.5747C68.8209 57.8766 68.9634 58.2111 68.7773 58.3726C68.8256 58.5299 65.9748 58.4251 65.8985 58.4534C65.8588 58.456 65.8191 58.4497 65.7821 58.435C65.7452 58.4203 65.712 58.3976 65.685 58.3684Z" fill="white"/>
<path d="M61.069 58.0695C60.8486 57.8294 59.5099 53.5667 59.0076 53.7785C58.7652 53.7591 58.5637 53.8121 58.449 54.0852L57.7321 55.8213H57.1893C56.7627 55.8585 56.7338 56.5249 57.4812 56.4143L56.7974 58.0695C56.6849 58.3469 56.9968 58.6132 57.2466 58.4329C57.3518 58.4523 58.063 56.4929 58.1171 56.4143H58.6337C59.0639 56.376 59.0818 55.7075 58.3544 55.8171L58.9329 54.3841L60.5004 58.2835C60.6487 58.6646 61.222 58.4549 61.069 58.0695Z" fill="white"/>
<path d="M56.1447 58.0695C55.9243 57.8304 54.5836 53.5667 54.0839 53.7785C53.8414 53.7591 53.6394 53.8121 53.5247 54.0852L52.8084 55.8212H52.2655C51.839 55.8585 51.81 56.5249 52.5569 56.4143L51.8732 58.0695C51.7611 58.3469 52.0725 58.6132 52.3229 58.4329C52.4281 58.4523 53.1392 56.4929 53.1934 56.4143H53.7157C54.1465 56.376 54.1643 55.7075 53.4364 55.8171L54.0113 54.3841L55.5777 58.2834C55.7249 58.6646 56.2983 58.4549 56.1447 58.0695Z" fill="white"/>
<path d="M92.5223 52.8627V58.2346C92.5218 58.2545 92.5136 58.2735 92.4995 58.2876C92.4854 58.3017 92.4665 58.3098 92.4466 58.3103H91.8817C91.7539 58.3105 91.6281 58.2785 91.5158 58.2174C91.4035 58.1562 91.3084 58.0679 91.2392 57.9604L88.7016 54.0394L88.7896 55.9979V58.2346C88.7891 58.2542 88.7813 58.2729 88.7676 58.2869C88.7539 58.3009 88.7355 58.3093 88.7159 58.3103H87.9792C87.9589 58.3103 87.9395 58.3024 87.9249 58.2883C87.9104 58.2741 87.902 58.2549 87.9015 58.2346V52.8627C87.9015 52.8525 87.9035 52.8424 87.9074 52.833C87.9113 52.8235 87.917 52.815 87.9242 52.8078C87.9314 52.8005 87.94 52.7948 87.9495 52.7909C87.9589 52.787 87.969 52.785 87.9792 52.785H88.5338C88.6619 52.7849 88.788 52.8168 88.9006 52.8779C89.0132 52.9391 89.1087 53.0274 89.1784 53.1349L91.7139 57.0477L91.6341 55.0974V52.8627C91.6341 52.8525 91.6361 52.8424 91.64 52.833C91.644 52.8235 91.6497 52.815 91.6569 52.8078C91.6641 52.8005 91.6727 52.7948 91.6821 52.7909C91.6916 52.787 91.7017 52.785 91.7119 52.785H92.4507C92.4702 52.7865 92.4884 52.7954 92.5017 52.8098C92.515 52.8242 92.5223 52.8431 92.5223 52.8627Z" fill="white"/>
<path d="M100.076 58.3105H99.2919C99.2795 58.3104 99.2674 58.3073 99.2565 58.3014C99.2456 58.2955 99.2363 58.287 99.2294 58.2767C99.2225 58.2664 99.2183 58.2546 99.2171 58.2423C99.2158 58.23 99.2176 58.2175 99.2223 58.2061L101.291 52.8588C101.3 52.8362 101.315 52.8169 101.336 52.8037C101.356 52.7905 101.38 52.784 101.404 52.7851H102.382C102.405 52.7849 102.428 52.7919 102.447 52.8051C102.466 52.8183 102.48 52.837 102.488 52.8588L104.559 58.2061C104.564 58.2177 104.566 58.2303 104.565 58.2428C104.563 58.2553 104.559 58.2672 104.552 58.2776C104.545 58.288 104.535 58.2964 104.524 58.3021C104.513 58.3078 104.5 58.3107 104.488 58.3105H103.706C103.691 58.3106 103.675 58.306 103.662 58.2972C103.65 58.2884 103.64 58.2759 103.634 58.2613L101.965 53.8574C101.959 53.8434 101.949 53.8313 101.936 53.8229C101.923 53.8145 101.908 53.81 101.893 53.81C101.878 53.81 101.863 53.8145 101.85 53.8229C101.837 53.8313 101.827 53.8434 101.821 53.8574L100.151 58.2613C100.145 58.2762 100.135 58.2889 100.121 58.2976C100.108 58.3064 100.092 58.3109 100.076 58.3105Z" fill="white"/>
<path d="M109.982 58.1855L108.429 56.2025C109.305 56.0367 109.819 55.4453 109.819 54.5367C109.819 53.4951 109.139 52.785 107.94 52.785H105.775C105.744 52.785 105.715 52.797 105.693 52.8184C105.671 52.8398 105.659 52.869 105.658 52.8996C105.658 52.9966 105.677 53.0927 105.715 53.1823C105.752 53.2719 105.806 53.3534 105.875 53.422C105.943 53.4906 106.025 53.545 106.114 53.5821C106.204 53.6192 106.3 53.6383 106.397 53.6383H107.846C108.572 53.6383 108.918 54.0087 108.918 54.5449C108.918 55.0811 108.581 55.4617 107.846 55.4617H105.775C105.744 55.4617 105.715 55.4737 105.693 55.4951C105.671 55.5166 105.659 55.5457 105.658 55.5763V58.2367C105.659 58.2569 105.667 58.2762 105.682 58.2903C105.696 58.3045 105.716 58.3124 105.736 58.3124H106.475C106.495 58.3119 106.514 58.3037 106.528 58.2896C106.542 58.2755 106.55 58.2566 106.551 58.2367V56.2516H107.404L108.753 58.0115C108.825 58.1058 108.917 58.1821 109.024 58.2343C109.131 58.2865 109.248 58.3132 109.366 58.3124H109.927C109.941 58.3115 109.955 58.3066 109.967 58.2984C109.979 58.2902 109.988 58.2789 109.994 58.2658C109.999 58.2527 110.001 58.2383 109.999 58.2241C109.997 58.2099 109.991 58.1966 109.982 58.1855Z" fill="white"/>
<path d="M97.7386 52.785H94.3088C94.2817 52.785 94.2557 52.7958 94.2365 52.8149C94.2173 52.8341 94.2065 52.8602 94.2065 52.8873C94.2065 53.0865 94.2856 53.2775 94.4265 53.4184C94.5673 53.5592 94.7584 53.6383 94.9575 53.6383H97.7386C97.7589 53.6378 97.7782 53.6294 97.7923 53.6148C97.8064 53.6003 97.8144 53.5808 97.8144 53.5606V52.8627C97.8144 52.8425 97.8064 52.823 97.7923 52.8085C97.7782 52.7939 97.7589 52.7855 97.7386 52.785ZM97.7386 57.457H95.1765C95.1664 57.4572 95.1563 57.4555 95.1469 57.4518C95.1375 57.4481 95.1289 57.4426 95.1216 57.4355C95.1144 57.4285 95.1086 57.42 95.1047 57.4107C95.1008 57.4014 95.0987 57.3914 95.0987 57.3813V55.9958C95.0987 55.9752 95.1069 55.9554 95.1215 55.9408C95.1361 55.9262 95.1559 55.9181 95.1765 55.9181H97.5401C97.5502 55.9183 97.5603 55.9166 97.5697 55.9129C97.5792 55.9092 97.5878 55.9037 97.595 55.8966C97.6022 55.8896 97.608 55.8811 97.6119 55.8718C97.6159 55.8625 97.6179 55.8525 97.6179 55.8423V55.1425C97.6179 55.1323 97.6159 55.1223 97.6119 55.113C97.608 55.1037 97.6022 55.0952 97.595 55.0882C97.5878 55.0811 97.5792 55.0756 97.5697 55.0719C97.5603 55.0682 97.5502 55.0665 97.5401 55.0667H94.3232C94.2926 55.0667 94.2632 55.0787 94.2414 55.1002C94.2196 55.1216 94.207 55.1508 94.2065 55.1813V58.1957C94.207 58.2263 94.2196 58.2555 94.2414 58.2769C94.2632 58.2983 94.2926 58.3103 94.3232 58.3103H97.7386C97.7586 58.3098 97.7775 58.3017 97.7916 58.2876C97.8057 58.2735 97.8138 58.2545 97.8144 58.2346V57.5347C97.8144 57.5145 97.8064 57.495 97.7923 57.4805C97.7782 57.4659 97.7589 57.4575 97.7386 57.457Z" fill="white"/>
<path d="M105.638 28.1235L101.017 34.9811C100.952 35.0798 100.924 35.1989 100.939 35.3163C100.955 35.4337 101.012 35.5416 101.101 35.6201C101.19 35.6986 101.304 35.7424 101.422 35.7434C101.541 35.7445 101.655 35.7026 101.746 35.6257L106.295 31.6843C106.321 31.6617 106.354 31.6473 106.389 31.6426C106.423 31.6379 106.459 31.6431 106.49 31.6577C106.522 31.6723 106.549 31.6957 106.568 31.725C106.587 31.7543 106.597 31.7885 106.598 31.8234V44.1736C106.597 44.2113 106.585 44.2479 106.564 44.2787C106.542 44.3094 106.511 44.3327 106.476 44.3454C106.44 44.3581 106.402 44.3596 106.365 44.3498C106.329 44.3399 106.296 44.3191 106.272 44.2902L92.5305 27.8329C92.309 27.5719 92.0334 27.3622 91.7228 27.2184C91.4122 27.0746 91.074 27 90.7317 27H90.2528C89.6281 27 89.029 27.2482 88.5873 27.6899C88.1455 28.1316 87.8974 28.7307 87.8974 29.3554V46.75C87.8985 47.374 88.1471 47.9721 88.5887 48.413C89.0303 48.8538 89.6288 49.1014 90.2528 49.1014C90.6553 49.1014 91.0511 48.9981 91.4022 48.8014C91.7534 48.6047 92.0481 48.3212 92.2583 47.9779L96.8791 41.1203C96.9446 41.0216 96.9721 40.9025 96.9567 40.7851C96.9412 40.6677 96.8839 40.5597 96.7952 40.4813C96.7065 40.4028 96.5924 40.359 96.4739 40.358C96.3555 40.3569 96.2407 40.3988 96.1506 40.4757L91.6014 44.4171C91.5747 44.4397 91.5421 44.4541 91.5075 44.4588C91.4728 44.4635 91.4376 44.4583 91.4058 44.4437C91.3741 44.4291 91.3471 44.4057 91.3281 44.3764C91.3091 44.3471 91.2989 44.3129 91.2985 44.278V31.9278C91.2989 31.8901 91.3107 31.8534 91.3326 31.8227C91.3544 31.792 91.3851 31.7687 91.4206 31.756C91.456 31.7433 91.4945 31.7418 91.5309 31.7516C91.5673 31.7615 91.5997 31.7823 91.6239 31.8111L105.366 48.2685C105.587 48.5295 105.863 48.7392 106.173 48.883C106.484 49.0268 106.822 49.1014 107.164 49.1014H107.643C108.268 49.1014 108.867 48.8532 109.309 48.4115C109.751 47.9698 109.999 47.3707 109.999 46.746V29.3513C109.998 28.7274 109.749 28.1293 109.307 27.6884C108.866 27.2476 108.267 27 107.643 27C107.241 27 106.845 27.1032 106.494 27.3C106.143 27.4967 105.848 27.7802 105.638 28.1235Z" fill="white"/>
</svg>
