<svg width="28" height="40" viewBox="0 0 28 40" fill="none" xmlns="http://www.w3.org/2000/svg">
<path d="M5.83153 33.0883V39.8617C5.83088 39.8868 5.82061 39.9107 5.80284 39.9285C5.78508 39.9463 5.76117 39.9565 5.73606 39.9572H5.02389C4.86269 39.9574 4.70403 39.9171 4.56246 39.84C4.4209 39.7629 4.30096 39.6515 4.21366 39.5159L1.01406 34.572L1.12501 37.0414V39.8617C1.1244 39.8864 1.11449 39.9099 1.09727 39.9276C1.08005 39.9453 1.05678 39.9559 1.03212 39.9572H0.103203C0.0776384 39.9572 0.053081 39.9472 0.034765 39.9294C0.016449 39.9115 0.00582258 39.8873 0.00514984 39.8617V33.0883C0.00514984 33.0755 0.00768632 33.0627 0.0126139 33.0508C0.0175415 33.0389 0.0247633 33.0281 0.0338683 33.019C0.0429733 33.0099 0.0537831 33.0027 0.0656794 32.9978C0.0775757 32.9928 0.0903261 32.9903 0.103203 32.9903H0.802471C0.964016 32.9901 1.12303 33.0304 1.265 33.1075C1.40697 33.1846 1.52739 33.296 1.61527 33.4315L4.8123 38.3651L4.71167 35.9061V33.0883C4.71167 33.0755 4.7142 33.0627 4.71913 33.0508C4.72406 33.0389 4.73128 33.0281 4.74039 33.019C4.74949 33.0099 4.7603 33.0027 4.7722 32.9978C4.78409 32.9928 4.79684 32.9903 4.80972 32.9903H5.74122C5.76586 32.9922 5.78885 33.0034 5.8056 33.0216C5.82234 33.0398 5.83161 33.0636 5.83153 33.0883V33.0883Z" fill="white"/>
<path d="M15.3555 39.9573H14.3672C14.3516 39.9572 14.3363 39.9533 14.3226 39.9459C14.3088 39.9385 14.2971 39.9278 14.2884 39.9148C14.2798 39.9018 14.2744 39.8869 14.2729 39.8714C14.2713 39.8559 14.2736 39.8402 14.2795 39.8257L16.8882 33.0834C16.8991 33.0549 16.9186 33.0306 16.9441 33.0139C16.9696 32.9972 16.9997 32.989 17.0301 32.9905H18.2635C18.2927 32.9903 18.3213 32.9991 18.3453 33.0157C18.3693 33.0323 18.3876 33.0559 18.3977 33.0834L21.009 39.8257C21.015 39.8404 21.0173 39.8563 21.0156 39.872C21.0139 39.8878 21.0083 39.9029 20.9994 39.9159C20.9904 39.929 20.9783 39.9396 20.9643 39.9468C20.9502 39.954 20.9345 39.9577 20.9187 39.9573H19.933C19.9134 39.9575 19.8943 39.9517 19.8781 39.9406C19.8619 39.9295 19.8496 39.9138 19.8427 39.8954L17.7372 34.3426C17.7296 34.3248 17.7171 34.3097 17.701 34.299C17.685 34.2884 17.6661 34.2827 17.6468 34.2827C17.6276 34.2827 17.6087 34.2884 17.5927 34.299C17.5766 34.3097 17.564 34.3248 17.5565 34.3426L15.451 39.8954C15.4432 39.9142 15.4299 39.9301 15.4128 39.9412C15.3958 39.9522 15.3758 39.9579 15.3555 39.9573V39.9573Z" fill="white"/>
<path d="M27.8469 39.7998L25.8884 37.2994C26.9928 37.0904 27.6405 36.3447 27.6405 35.1991C27.6405 33.8857 26.7838 32.9903 25.2717 32.9903H22.5417C22.5032 32.9903 22.4661 33.0054 22.4386 33.0325C22.4111 33.0595 22.3953 33.0962 22.3947 33.1348V33.1348C22.3947 33.2571 22.4188 33.3782 22.4656 33.4913C22.5124 33.6043 22.581 33.707 22.6675 33.7935C22.754 33.88 22.8567 33.9486 22.9697 33.9954C23.0827 34.0422 23.2038 34.0663 23.3262 34.0663H25.153C26.069 34.0663 26.5051 34.5333 26.5051 35.2094C26.5051 35.8854 26.0794 36.3654 25.153 36.3654H22.5417C22.5032 36.3654 22.4661 36.3805 22.4386 36.4075C22.4111 36.4346 22.3953 36.4713 22.3947 36.5099V39.8643C22.3953 39.8898 22.406 39.9141 22.4243 39.932C22.4426 39.9498 22.4671 39.9598 22.4927 39.9598H23.4242C23.4493 39.9591 23.4732 39.9488 23.491 39.9311C23.5088 39.9133 23.519 39.8894 23.5197 39.8643V37.3614H24.5957L26.2961 39.5804C26.3869 39.6993 26.5041 39.7955 26.6385 39.8613C26.7728 39.9272 26.9206 39.9609 27.0702 39.9598H27.7772C27.7952 39.9586 27.8126 39.9525 27.8273 39.9422C27.8421 39.9318 27.8537 39.9176 27.8609 39.9011C27.8681 39.8845 27.8706 39.8663 27.8682 39.8484C27.8657 39.8306 27.8583 39.8137 27.8469 39.7998V39.7998Z" fill="white"/>
<path d="M12.4088 32.9903H8.08417C8.04995 32.9903 8.01714 33.0039 7.99294 33.0281C7.96875 33.0523 7.95515 33.0851 7.95515 33.1193C7.95515 33.3705 8.05492 33.6113 8.23252 33.7889C8.41011 33.9665 8.65098 34.0663 8.90213 34.0663H12.4088C12.4344 34.0656 12.4586 34.055 12.4765 34.0367C12.4943 34.0184 12.5043 33.9938 12.5043 33.9682V33.0883C12.5043 33.0628 12.4943 33.0382 12.4765 33.0199C12.4586 33.0016 12.4344 32.991 12.4088 32.9903V32.9903ZM12.4088 38.8812H9.17823C9.16548 38.8815 9.15278 38.8793 9.1409 38.8747C9.12902 38.87 9.11819 38.863 9.10905 38.8541C9.0999 38.8452 9.09264 38.8346 9.08768 38.8229C9.08273 38.8111 9.08017 38.7985 9.08018 38.7857V37.0388C9.08018 37.0128 9.09051 36.9879 9.1089 36.9695C9.12728 36.9511 9.15222 36.9408 9.17823 36.9408H12.1585C12.1713 36.9411 12.184 36.9389 12.1958 36.9343C12.2077 36.9296 12.2185 36.9226 12.2277 36.9137C12.2368 36.9048 12.2441 36.8942 12.2491 36.8824C12.254 36.8707 12.2566 36.8581 12.2566 36.8453V35.9628C12.2566 35.9501 12.254 35.9374 12.2491 35.9257C12.2441 35.9139 12.2368 35.9033 12.2277 35.8944C12.2185 35.8855 12.2077 35.8785 12.1958 35.8739C12.184 35.8692 12.1713 35.867 12.1585 35.8674H8.10223C8.06367 35.8674 8.02664 35.8825 7.99913 35.9095C7.97162 35.9365 7.95583 35.9733 7.95515 36.0119V39.8127C7.95583 39.8512 7.97162 39.888 7.99913 39.915C8.02664 39.942 8.06367 39.9572 8.10223 39.9572H12.4088C12.4339 39.9565 12.4578 39.9463 12.4756 39.9285C12.4934 39.9107 12.5036 39.8868 12.5043 39.8617V38.9792C12.5043 38.9537 12.4943 38.9291 12.4765 38.9108C12.4586 38.8925 12.4344 38.8819 12.4088 38.8812Z" fill="white"/>
<path d="M22.3689 1.89475L16.5425 10.5414C16.46 10.6659 16.4253 10.8161 16.4447 10.9641C16.4642 11.1122 16.5365 11.2483 16.6484 11.3472C16.7602 11.4462 16.9041 11.5014 17.0534 11.5027C17.2028 11.504 17.3475 11.4513 17.4611 11.3542L23.1971 6.38452C23.2308 6.35611 23.2719 6.33789 23.3156 6.33196C23.3593 6.32604 23.4037 6.33266 23.4438 6.35106C23.4838 6.36946 23.5178 6.39888 23.5417 6.43587C23.5657 6.47287 23.5786 6.51591 23.579 6.55998V22.1323C23.5786 22.1798 23.5636 22.226 23.5361 22.2647C23.5086 22.3035 23.4699 22.3328 23.4252 22.3488C23.3805 22.3649 23.3319 22.3668 23.286 22.3544C23.2402 22.342 23.1993 22.3158 23.1688 22.2793L5.84186 1.52834C5.56261 1.19925 5.2151 0.934859 4.82344 0.753511C4.43178 0.572163 4.00536 0.478203 3.57375 0.478149H2.96996C2.18227 0.478149 1.42685 0.791055 0.86988 1.34803C0.312905 1.905 0 2.66042 0 3.44811V25.3809C0.00136714 26.1677 0.314876 26.9218 0.871703 27.4776C1.42853 28.0335 2.18317 28.3457 2.96996 28.3457C3.47746 28.3457 3.97647 28.2155 4.41923 27.9675C4.86199 27.7194 5.23366 27.3619 5.49868 26.9291L11.3251 18.2824C11.4075 18.1579 11.4423 18.0078 11.4228 17.8597C11.4033 17.7116 11.331 17.5756 11.2192 17.4766C11.1073 17.3776 10.9635 17.3224 10.8141 17.3211C10.6648 17.3198 10.52 17.3726 10.4065 17.4696L4.67039 22.4393C4.63669 22.4677 4.59561 22.4859 4.55194 22.4919C4.50827 22.4978 4.46381 22.4912 4.42377 22.4728C4.38372 22.4544 4.34974 22.425 4.32579 22.388C4.30183 22.351 4.2889 22.3079 4.2885 22.2639V6.69158C4.28892 6.64407 4.30389 6.59784 4.3314 6.55911C4.35891 6.52038 4.39764 6.49102 4.44236 6.47498C4.48708 6.45895 4.53564 6.45702 4.58149 6.46945C4.62734 6.48188 4.66828 6.50807 4.69878 6.5445L22.0257 27.2955C22.3049 27.6246 22.6524 27.889 23.0441 28.0703C23.4357 28.2517 23.8622 28.3456 24.2938 28.3457H24.8976C25.6853 28.3457 26.4407 28.0328 26.9977 27.4758C27.5546 26.9188 27.8675 26.1634 27.8675 25.3757V3.44295C27.8662 2.65616 27.5527 1.90206 26.9958 1.3462C26.439 0.790345 25.6844 0.478148 24.8976 0.478149V0.478149C24.3901 0.478105 23.8911 0.608333 23.4483 0.856368C23.0055 1.1044 22.6339 1.46194 22.3689 1.89475V1.89475Z" fill="white"/>
</svg>
