<svg width="42" height="41" viewBox="0 0 42 41" fill="none" xmlns="http://www.w3.org/2000/svg">
<path d="M4.86771 32.7582C5.2356 32.9745 5.54692 33.2719 5.74498 33.6774C5.97139 34.0829 6.08459 34.5695 6.08459 35.1102C6.08459 35.6508 5.97139 36.1104 5.7167 36.5159C5.49029 36.9214 5.15069 37.2187 4.72622 37.408C4.3017 37.6242 3.79226 37.7324 3.25459 37.7324C2.94327 37.7324 2.66023 37.6783 2.37725 37.5702C2.09422 37.4891 1.83953 37.3269 1.64147 37.1376V39.9491H0V32.542H1.41506L1.55655 33.1367C2.17913 32.6501 2.85835 32.4068 3.56585 32.4068C4.047 32.4068 4.49981 32.5149 4.86771 32.7582ZM3.96209 36.1104C4.24506 35.8671 4.38661 35.5427 4.38661 35.1371C4.38661 34.7317 4.24506 34.4073 3.99037 34.1369C3.73568 33.8666 3.39608 33.7585 3.02818 33.7585C2.71686 33.7585 2.43382 33.8125 2.20742 33.9477C1.98107 34.0558 1.81124 34.2451 1.66975 34.4884V35.7049C1.75467 35.9482 1.92444 36.1374 2.12256 36.2726C2.34897 36.4078 2.60366 36.4889 2.91498 36.4889C3.33944 36.4889 3.67905 36.3537 3.96209 36.1104Z" fill="white"/>
<path d="M7.04674 33.7037C7.30149 33.3253 7.64104 33.0009 8.09385 32.7846C8.54666 32.5683 9.0561 32.4332 9.62211 32.4332C10.1881 32.4332 10.6975 32.5413 11.1503 32.7846C11.5748 33.0009 11.9144 33.3253 12.1691 33.7308C12.4238 34.1363 12.537 34.5688 12.537 35.0824C12.537 35.5961 12.4238 36.0286 12.1691 36.4341C11.9144 36.8396 11.6031 37.164 11.1503 37.3803C10.7258 37.5965 10.1881 37.7317 9.62211 37.7317C9.0561 37.7317 8.54666 37.6236 8.09385 37.4073C7.64104 37.191 7.30149 36.8937 7.04674 36.4881C6.82034 36.0827 6.67885 35.6231 6.67885 35.0824C6.67885 34.5688 6.82034 34.1092 7.04674 33.7037ZM8.71649 36.0557C8.9429 36.326 9.25422 36.4341 9.62211 36.4341C9.99001 36.4341 10.3013 36.299 10.5277 36.0557C10.7541 35.8123 10.8673 35.4609 10.8673 35.0824C10.8673 34.677 10.7541 34.3525 10.5277 34.1092C10.273 33.8389 9.99001 33.7037 9.59383 33.7037C9.22588 33.7037 8.9429 33.8389 8.68821 34.0822C8.4618 34.3525 8.3486 34.677 8.3486 35.0824C8.3486 35.4609 8.4618 35.7853 8.71649 36.0557Z" fill="white"/>
<path d="M15.1976 28.7029V37.5969H13.5562V28.7029H15.1976Z" fill="white"/>
<path d="M21.9328 32.6766L18.5934 39.9756H17.0086L18.2538 37.3534L15.8766 32.6766H17.7444L19.1028 35.5962L20.4612 32.6766H21.9328Z" fill="white"/>
<path d="M28.2153 32.6765V37.5966C28.2153 38.0561 28.0738 38.4886 27.7908 38.8671C27.5078 39.2456 27.1399 39.543 26.6588 39.7592C26.1777 39.9755 25.6683 40.0836 25.1023 40.0836C24.6777 40.0836 24.3098 40.0295 23.9985 39.9484C23.6873 39.8403 23.4325 39.7322 23.2345 39.6241C23.008 39.4889 22.7816 39.3267 22.5269 39.1104L23.4891 38.029C23.7156 38.2453 23.9702 38.4075 24.1966 38.5157C24.4231 38.6238 24.7344 38.7049 25.074 38.7049C25.4984 38.7049 25.8381 38.5968 26.1211 38.4075C26.4041 38.2183 26.5456 37.921 26.5456 37.5695V36.8666C26.3758 37.1099 26.1494 37.3262 25.8098 37.4884C25.4702 37.6506 25.074 37.7317 24.6212 37.7317C24.1684 37.7317 23.7155 37.6236 23.3193 37.3803C22.9231 37.164 22.6118 36.8396 22.3571 36.4341C22.1307 36.0286 21.9892 35.5961 21.9892 35.1095C21.9892 34.6229 22.1024 34.1633 22.3571 33.7578C22.6118 33.3523 22.9231 33.0279 23.3477 32.7846C23.7438 32.5413 24.1684 32.4332 24.6212 32.4332C25.0456 32.4332 25.4136 32.4872 25.7532 32.5954C26.0928 32.7035 26.3475 32.8657 26.5173 33.0549L26.6871 32.6765H28.2153ZM26.5456 35.7042V34.4877C26.4324 34.2444 26.2626 34.0552 26.0079 33.92C25.7532 33.7848 25.4702 33.7037 25.1306 33.7037C24.7344 33.7037 24.3948 33.8389 24.1117 34.0822C23.8288 34.3255 23.6872 34.6499 23.6872 35.0554C23.6872 35.4339 23.8288 35.7853 24.1117 36.0557C24.3948 36.326 24.7344 36.4612 25.1306 36.4612C25.7815 36.4341 26.2626 36.1908 26.5456 35.7042Z" fill="white"/>
<path d="M29.5742 33.7044C29.829 33.2989 30.1685 33.0015 30.6213 32.7582C31.0741 32.542 31.5836 32.4068 32.1496 32.4068C32.7156 32.4068 33.225 32.5149 33.6778 32.7582C34.1023 32.9745 34.4419 33.2989 34.6966 33.7044C34.923 34.1099 35.0645 34.5424 35.0645 35.0561C35.0645 35.5697 34.9513 36.0022 34.6966 36.4077C34.4702 36.8133 34.1306 37.1376 33.6778 37.3539C33.2533 37.5702 32.7156 37.7053 32.1496 37.7053C31.5836 37.7053 31.0741 37.5972 30.6213 37.3809C30.1685 37.1647 29.829 36.8673 29.5742 36.4618C29.3195 36.0563 29.2063 35.5967 29.2063 35.0291C29.2063 34.5695 29.3195 34.1099 29.5742 33.7044ZM31.2157 36.0563C31.4421 36.3266 31.7533 36.4348 32.1212 36.4348C32.4892 36.4348 32.8004 36.2996 33.0269 36.0563C33.2533 35.813 33.3665 35.4616 33.3665 35.0831C33.3665 34.6776 33.2533 34.3532 33.0269 34.1099C32.8004 33.8666 32.4892 33.7314 32.1212 33.7314C31.7533 33.7314 31.4704 33.8666 31.2157 34.1099C30.9609 34.3532 30.8477 34.7046 30.8477 35.0831C30.8761 35.4616 30.9893 35.786 31.2157 36.0563Z" fill="white"/>
<path d="M40.8658 32.8387C41.2055 33.109 41.3472 33.4604 41.3753 33.893V37.5966H39.7057V34.4877C39.6775 34.0011 39.4228 33.7578 38.9416 33.7578C38.5737 33.7578 38.2624 33.92 38.036 34.2714C37.8096 34.6229 37.6964 35.0554 37.6964 35.569V37.5966H36.055V32.6765H37.5549L37.6681 33.4604C37.8662 33.136 38.1209 32.8927 38.4605 32.7035C38.8001 32.5143 39.1964 32.4332 39.6492 32.4332C40.1303 32.4332 40.5548 32.5683 40.8658 32.8387Z" fill="white"/>
<path d="M29.502 8.76865C28.8684 8.40455 28.0447 8.40455 27.3479 8.76865L22.4057 11.5601L19.0476 13.3805L14.1056 16.172C13.472 16.5361 12.6483 16.5361 11.9514 16.172L8.02308 13.9874C7.38947 13.6233 6.94596 12.9557 6.94596 12.2276V7.91909C6.94596 7.1909 7.32612 6.52339 8.02308 6.15929L11.888 4.0354C12.5216 3.6713 13.3453 3.6713 14.0422 4.0354L17.9072 6.15929C18.5408 6.52339 18.9843 7.1909 18.9843 7.91909V10.7105L22.3424 8.82933V6.03794C22.3424 5.30974 21.9623 4.64222 21.2653 4.27813L14.1056 0.273072C13.472 -0.091024 12.6483 -0.091024 11.9514 0.273072L4.66501 4.27813C3.96805 4.64222 3.58789 5.30974 3.58789 6.03794V14.1087C3.58789 14.837 3.96805 15.5044 4.66501 15.8685L11.9514 19.8735C12.585 20.2377 13.4087 20.2377 14.1056 19.8735L19.0476 17.1429L22.4057 15.2616L27.3479 12.531C27.9814 12.1669 28.805 12.1669 29.502 12.531L33.367 14.6549C34.0005 15.019 34.4441 15.6864 34.4441 16.4146V20.7231C34.4441 21.4513 34.064 22.1189 33.367 22.483L29.502 24.6675C28.8684 25.0317 28.0447 25.0317 27.3479 24.6675L23.4829 22.5436C22.8492 22.1795 22.4057 21.512 22.4057 20.7839V17.9924L19.0476 19.8735V22.665C19.0476 23.3932 19.4279 24.0607 20.1247 24.4248L27.4112 28.4299C28.0447 28.794 28.8684 28.794 29.5654 28.4299L36.8518 24.4248C37.4853 24.0607 37.9289 23.3932 37.9289 22.665V14.5942C37.9289 13.866 37.5487 13.1985 36.8518 12.8344L29.502 8.76865Z" fill="white"/>
</svg>
